/* XPM */
static char *_d10ebfcd6524ff9b4e3508ab5d0526bt8yKIOwBWcZ98FFq[] = {
/* columns rows colors chars-per-pixel */
"64 64 63 1 ",
"  c #C8C8C8",
". c #F3F3F3",
"X c #F4F4F4",
"o c gray96",
"O c #F1F1F1",
"+ c #E9E9E9",
"@ c #D8D8D8",
"# c gray65",
"$ c gray66",
"% c gray91",
"& c #CACACA",
"* c #A7A7A7",
"= c #A9A9A9",
"- c gray78",
"; c #E2E2E2",
": c #F9F9F9",
"> c gray98",
", c #FEFEFE",
"< c white",
"1 c #FBFBFB",
"2 c gray93",
"3 c #ECECEC",
"4 c gray89",
"5 c gray85",
"6 c #DADADA",
"7 c gray97",
"8 c gray99",
"9 c #D7D7D7",
"0 c gray86",
"q c gray92",
"w c #F8F8F8",
"e c #FDFDFD",
"r c #F6F6F6",
"t c #EAEAEA",
"y c #DDDDDD",
"u c #E4E4E4",
"i c #EEEEEE",
"p c #DFDFDF",
"a c gray90",
"s c gray95",
"d c gray87",
"f c #D0D0D0",
"g c #E1E1E1",
"h c gainsboro",
"j c #EFEFEF",
"k c #E6E6E6",
"l c gray94",
"z c #E7E7E7",
"x c gray79",
"c c #CBCBCB",
"v c #CDCDCD",
"b c gray88",
"n c gray81",
"m c #D5D5D5",
"M c gray83",
"N c gray82",
"B c gray84",
"V c gray80",
"C c #AAAAAA",
"Z c #C5C5C5",
"A c #CECECE",
"S c #A5A5A5",
"D c #C6C6C6",
/* pixels */
" .XoOOXoooooo+@#$@%oXXoooooooo. &.X.O.ooooooo%@*=@+oXooooooooo.-",
"X;:>>,<<<<12+345643%21<<<<<<<>;.o;7>8<<<<<>2+34904q%21<<<<<<<>;.",
"o:;we<<<rt+7843tt3;1r+t7<<<<8;>X7w4>,<<<rt+7843%q341r+t7<<<<8;>X",
"X1:y8eOui,<8p8+or%8p8,,ias,8d8<X.1>d8esui,<8p8+.r%8p8,,ias,8d8<.",
".8,8far,<<8p872oo278p8,,<raf8<<.X,<8fao<<<8p8r2s7278p8,<<raf8<<O",
"X<<,a;><,>48<+>Xr1+<84>,,>;a,<<X7<<,a;>,,>48<+>.w>+<84>,<>;a,<,s",
"o<<Or>;,,;><,+,or<t,<>4,eg>rs,,X7<<Or>;,e4><,+,.w<+,<>4,e;>rs,<X",
"o<<a<<,6h,,<ir<or<7j<<,06,,,u,<X7<<u<<,6h,,<27<.w<rj<<,h6e,<4<<X",
"o<7j<<,06,<w;<<or<<u<<,6h,<1i7<X7<rj<<,h6,8wu<<.w<<u<<,6h,eei7<X",
"o<t,<>4,,g:rO<<or<<Or>;,,4><et<X7<t,<>4,,g:rO<<.w<<Or>;,,;><et<X",
"o>+<84><,:;a,,,or<<,a;><,:48<%>X7>+<84><,:;a,,<.w<<,a;><,>48,%1X",
"o278p8<<,raf8<<Xr<<8fkr,,<8p872X7278p8<,<raf8<,.w<<8far,<<8p8r3X",
"X%8p8<e2us,8y8<oo<8d88juj,<8p8+Xo+8p8<eias,8d8<.7<8d8>lai,<8p8+.",
"+q;87++7<<<<8;>or:;88>e<7t+784q+qq48r%t7<<<<8;>.7:;>11,<7t+784q%",
"@43%3><<<<<<<>;Xo;:8>e<<<<12+34@64qz3><<<<<<<>;sr;w18,<<<<12+349",
"*5+.XoooooooooX xX.OXoooooooo+@*=5+sooooooooooX-c.sOooooooooo+@*",
"$5+rrorrrrrrrroxxsXroorrrrrrr+5$=@troorrrrrrrrX vsorXrrrrrrrrt5$",
"@43+2>,<<<<<<>;Xsa><<<,<<<>2+349643+2>,<<<<<<>;s.;><<,,<<<>2+349",
"%3487+tr<<<<8;>XX>;8<<<,rt+784q%q3487+tr<<<<8;>s7>;8<<,,rt+78uq%",
"o+8p8<,ius,8d8,or<8y8,Oui,<8p8%X7+8p8<,jus,8d8,.w<8d8,Oui,<8b1+X",
"o278p8<<<raf8,<or<<8nar<<,1p8r2X7278p8<<<ruf8,<.w<<8nar<<,8p8r2X",
"o1+<84><<>;u8<<or<<,a;><<>;7,+1X7>+<84><<>gue<<.w<<,a;><<>g:<+1X",
"o<t,<>4,,;:XO<<or<<Or>;,,4:8et<X7<t,<>4,,g:os<<.w<<Or>;,,4w8,t<X",
"o<7j<<,h6e<<u,<or<<u<<,6he<<ir<X7<rj<<,06e<<u,<.w<<u<<,6he<<27<X",
"o<<a<<,60,<<j7,or<rj<<,h5,<<u<,X7<<u<<,60,<<i7,.w<rj<<,h6,<<a,,X",
"X<<sr>g:,4><,t<oo<t,<>4e,;>rs<<.r<<Or>u8,4><,t<.7<+,<>4e,;>rs<<.",
"o,<,a;re<>48<+>oo>+<84:<<>;a,<<Xr,<eaa7<<>48<+1.7>+<84><<>;a,<<X",
"o<,emko<<<8p872or2r8p1<<<raf8<<X7<,1Mar<<<8p872.w378p8<<<raN8<<X",
"o<8;:esai,<8p8+or+8p8<,ius,8y8<X7<>d>,saj,<8p8+.w+1p8<,ius,8d8<X",
"o>k:,<<<7t+7843+t348r+t7<<<<8;>X7w41,<<<7t+784q%qq48r+t7<<<<8;>X",
"sa:<<,,<<<12+34@5;3+2><<<<<<<>;ssa:<<,<<<<12+3;B643+2><<<<<<<>4.",
"flXXXXX.XXXXX+@**@+XXX..XXXXXX.cNsXXXX.XXXXXX+@#$@+XXX.XXXXXXXsn",
"co777777or777t5==6t7777ro77777ocVo77777rr7777t6$C6q7777rr7777ro&",
"X;><<<<<<,>2+q;5543+2><<<,<<<:g.o;><<<<<<,>2+q49043+21<<,,<<<:;.",
"o>;8<<<<7t%r1;3tt3487+tr<<,,1g>X7>;8<<<<rt%r143%33487+t7<<,,1;>X",
"o<8d8,Ouj,<ry8+or+8p8<,jusewy8<X7<8y8,Ouj,8rb8+.w+8p8<,ius1>d8<X",
"o<<8far<<,1p8r2or278p8<<<raf1<<X7<<8nar<<,8b1r2.w278p8<<<oaf1<<X",
"o<<,a;><,:48<+>or>+<84><,:;a,,,X7<<,a;><,>u8<%>.w>+<84><,>;a,,<X",
"o<<Or>;ee4><,t<Xr<t,<>u8e;>rs<,.7<<Or>;eeu><,t,.w<t,<>aee;>rs<,.",
"X,<u<<e6h,<<i7<oo<7j<e:d6,<<u<<Xo<<u<<e6y,<<i7<.r<ri<1>y0,<<u<<.",
"o,oi<,eh6,<<u<<or,,u8>860,<<i7<X7,oj<,ey6,<<u<<.7,<k11e6h,<<i7<X",
"o<t8,:4,,;>rs<<or<,l.:;,,4><,t<X7<+8,>u,,;>rs<<.w<elr>;,,4><,t<X",
"o>%e14><<>;a,<<or<1>k;><<>48<+1X7>%e8u><<>;a,<<.we>1a;><<>48<+1X",
"o278p1<<<raf8<<oo118far<<<8p872X7378p8<<<raf8<<.o1e8nar<<<8p8r2X",
"X+8p8<eias,8d8<rX18d8,Oai,<8p8+Xr+8b8<eius,8y8<.oe8d8eOaj,<8p8+.",
"%348r+tr,<<<8;>Xo>;8<<<,rt+784q%q3u8r+tr<<<<8;:sw>;8<<<,7t+784q%",
"54q+21<<,,<<<>gXX;><<<<<,,12+3;@643+21<<,,<<<:gsr;><<<<<,<12+3;9",
"#9%.......s..ss- s........s..z@#$9%..........ssZxs.......s..sz9#",
"=hqwwwwwwwwor7rccrwwwwwwwwrsrq0=C0qwwwwwww7o7wrxVrwwwwwwwwXX7q0=",
"542+2><<<<,,,>;Xo;><<<<<<<:t%34@643+2><<<,,,,>;sr;><<<<<<,:q%3u@",
"+348w+tr<,<<8g>or>;8<<<<r++w843+q348w+t7,,<<1;>.w>;8<<<<r++w1u3+",
"o+8p8<,juO,8d8,or<8d8,Ouj,<8b8%X7+8p8<,iaO,8d8,.w<8y8,Ouj,<8b8%X",
"X278p8e><raf8<<oo<<8nar,<<8b8r2Xr278p11e<raf8<<.7<<8Aar<<<8ber2.",
"o:+<84r,<>;a,<<or,<,a;:<<>u8<+1Xr:+<1g7<<>;a,<<.7,<,kg:<<>ue<+1X",
"o<+,174,,;>rs<<or<,Or:;,,u><,t<X7<+81w4,,;>rs<<.w,,Or>;,,u1<,t<X",
"o<r21,,h6,<<u<<or<<;,<,6h,<<i7<X7<oie<,h0,<<a<<.w<e4<<,6y,<<27<X",
"o,>u,,,6h,<<j7<or,oj,<,y6,<<u<<X78>u,<,00,<<i7<.w,rj,<,y6,<<a<<X",
".>esr:g,,4><,t<oo,t,<:4,,;>rs<<..1,sr:;,,4><,t<.r<t,<:u,,;>rs<<X",
".e<,a;>,<>48<+>oo>+<8u>,<>;a,<<.o,<,a;:,<>48<+>s7>+<8u><<>;a,<,.",
"o<<8far<,<8p873Xr278b8<<,raf8<,X7<<8far<,<8p872.w3w8be<,,ruN88>X",
"o<8d8,saie,8p1%or+8b8<,iaOe8d1<X7<8d8,saie<8p1+.w+8be<,iuO,>b:,X",
"o>;8<<<<7t%X143+t3u8r+t7<<,e1;>X7>;8<<<<7t%o14qzq3uer+t7<<e>>;>X",
"X;><<<<<<<>t%q4554q+21<<<<,8<>;.o;><<<<<<<:t+3490u3+21<<<e:8<>;.",
"-.XXXXXXX..X.%@**9%XXXXXX..X...-x.XXXXXXX.XX.%@S=9+XXXXX.lOX.X.D"
};
