/* XPM */
static char *_a173629ac374992a5a949c7f27aedd0AN8QwyQb2DZla3W4[] = {
/* columns rows colors chars-per-pixel */
"64 64 75 1 ",
"  c #E5B8BB",
". c #F8CBCE",
"X c #F9CCCE",
"o c #F7CACD",
"O c #F4C7C9",
"+ c #ECBFC2",
"@ c #D7AAAC",
"# c #D7AAAD",
"$ c #F3C6C9",
"% c #F8CCCE",
"& c #E6B9BB",
"* c #D8ABAD",
"= c #ECC0C2",
"- c #F1C4C6",
"; c #FACED0",
": c #FBCED1",
"> c #FDD0D3",
", c #F5C8CB",
"< c #F3C7C9",
"1 c #F1C4C7",
"2 c #EDC0C3",
"3 c #F0C3C6",
"4 c #F9CCCF",
"5 c #FACDD0",
"6 c #FCCFD2",
"7 c #ECBFC1",
"8 c #EEC1C3",
"9 c #F5C8CA",
"0 c #F0C4C6",
"q c #F4C7CA",
"w c #F9CDCF",
"e c #FBCED0",
"r c #FCCFD1",
"t c #FBCFD1",
"y c #EFC2C5",
"u c #F6C9CC",
"i c #FDD0D2",
"p c #F2C5C7",
"a c #EFC2C4",
"s c #F0C3C5",
"d c #EEC2C4",
"f c #E9BCBE",
"g c #F2C5C8",
"h c #FACDCF",
"j c #F8CBCD",
"k c #F7CBCD",
"l c #EEC1C4",
"z c #F1C5C7",
"x c #F6C9CB",
"c c #E9BCBF",
"v c #EFC3C5",
"b c #E8BCBE",
"n c #F7CACC",
"m c #FCD0D2",
"M c #F5C9CB",
"N c #E5B8BA",
"B c #E6BABC",
"V c #EDC0C2",
"C c #E6B9BC",
"Z c #E8BBBD",
"A c #F4C8CA",
"S c #E8BBBE",
"D c #EDC1C3",
"F c #EBBEC0",
"G c #F2C6C8",
"H c #E7BABC",
"J c #E9BDBF",
"K c #D6A9AC",
"L c #D7ABAD",
"P c #E7BABD",
"I c #D8ABAE",
"U c #F3C6C8",
"Y c #D6AAAC",
"T c #E4B7BA",
"R c #E5B9BB",
/* pixels */
" ..XooXXXXXXXO+@#+$X.%XXXXXXXX. &...o.XXXXXXX$+@*=OX.XXXXXXXXX. ",
".-;::>>>>>:,<,1=21,$,:>>>>>>>:3.4-5:6>>>>>:,$,17819$,:>>>>>>>:0.",
"4:-;6>>>4qOw619Oq,-:4Oq4>>>>63:.w5-e>>>>4q<461,$,,1r4Oqw>>>>60:.",
".t:y66o1u>>6y6<44$6y6>iupo66a6>..r:a66o1u>>6s6$.5$6sr>>upo66d6>.",
".6>6fg4>>>6y64,44,h6y6>>>4gf6>>..>>6fg4>>>6s64,j5,56s6>>>4gf6>>k",
".>>6g3:>>:16>O:%4:O>61:>i:3g6>>.4>>6g3:>>:16><:.5:$>61:>>:0p>>>j",
"4>>o4:->61:>>q>44>q>>:1>63:4o>>.w>>o4:3>61:>iO>.5>O>>:1>60:4o>>.",
"4>>p>>>28>>>u4>44>4u>>>l2>>>z>>.w>>1>>i2li>>,w>.5>4u>>il26>>1>>.",
"4>4u>>>l2>>5->>44>>p>>i2l>>rxh>.w>4u>>il2>65z>>.5>>1>>62l>i6uh>.",
"4>q>>:1>>3:4o>>44>>o4:3>>1:>6q>.w>q>>:1>i3:4o>>.5>>o4:3>i1:>6q>.",
"4:$>61:>>e-p6>>44>>6g3:>>:16>$:.w:O>61:>>:3p6>>.5>>6g0:>i:16><:.",
"4,h6y6>>>4gc6>>%4>>6fg4i>>6y64,.w,56v6>>>4gc6>>.5>>6bg4>>>6s64,.",
"X$6y6>6,1o66y6>4X>6a66npu>>6y6$.4O6s6>6xpo66a6>.4>6d6:ngu>>6v6$.",
"$9-64<qw>>>>63:44e366t6>4qOh619$q9164$qw>>>>63:.5e0:r:>>4qOh619<",
"=1,$,:>>>>>>>:3%X-e6:m>>>>:MO,1+219$,:>>>>>>>:3o405t6>>>>>:,<,1+",
"#=O..444444444.&&..o.44444444q+@*2O.4444444444.NB..o444444444OV#",
"#Vq44444444444X&CjX4444444444OV#*=q4X444444444. Zk44X44444444qV#",
"=1,<,:>>>>>>>:3.jg:>>>>>>>:,$,1+21,<,:>>>>>>>:0j.-:>>>>>>>:,<,1+",
"$,164Oq4>>>>63:%X:36>>>>4qO5619$q,16hOq4>>>>60:k5:36>>>>4qO561A$",
"4O6y6>>u1o66a6>44>6y66o1x6>6s6$.wO6y6>>u1o66d6i.5>6a66o1u>>6yr<.",
"4,46y6>>>4pf6i>44>>6cg4>>>rs64M.w,56y6>>>4pf6>>.5>>6Sg4>>>6y64,.",
"4:<>61:>>:3p6>>44>>6g-:>>:-5>O:.w:O>61:>>:3z6>>.5>>6g3:>>:3e>$:.",
"4>q>>:1>i3:Xo>>44>>o4:3>i1:66q>.w>q>>:1>63eXo>>.5>>o4:3>61566q>.",
"4>4u>>>l26>>p>>44>>1>>>2l6>>x4>.w>4u>>>826>>1>>.5>>1>>i2l6>>,h>.",
"4>>g>>i2D6>>u4>X4>4u>>il2>>>1>i.w>>1>>628>>>u4>.5>4u>>6l2>>>p>>.",
"X>>o4:3ei1:>>q>%4>q>>:16>-:4o>>.4>>o4:16>1:>>q>.5>O>>:1ii3:4o>>.",
"4>>6p-h6>:16>$:44:O>61:>>:-gi>>.4>>6gg5>>:16>O:.w:$>61:>>:3g>>>.",
"4>>6FG4>>>6y6h,44,46y6>>>4gc6>>.w>>:Fg4>>>6y64,.5,56y6>>>4gc6>>.",
"4>6-e6ogu>>6y6q44O6y6>iuzo66y6>.w>:y:6o1u>>6y6$.5<:y6>>u1o>6a6>.",
"4:gei>>>4qO461,<q9164$qh>>>>6-:.w51t>>>>4q<w61,$A,164$qh>>>>63:.",
"kpe>>>>>>>:,O,1=V1,$,:>>>>>>>:3jjp:>>>>>>>:MO,1721,<,:>>>>>>>:1.",
"fo...........O=@#+O............HJj...........O+K#V<...........jS",
"H4hhhhhw44hhhqV*L2qhhhh44hhhhhXBP4hhhhh44hhhhq2#I2qhhhh44hhhh44C",
".3:>>>>>>>:,O91=21,$,:>>>>>>>e3.43:>>>>>>i:,$91781,<,:>>>>>>>e1.",
"4:36>>>>4q$4t-,qq,165Oq4>>>i:3:.w:-6>>>>4q$4:1,$9,16hOq4>>>>:-:.",
"4>6a66ozu>>4a6$44<6y6>>uzo6ed6>.w>6y66opu>6hy6$.5O6y6>>uzo6:y6>.",
"4>>6fg4>>>rv64,44,w6y6>>>4gbr>>.w>>6Sg4>>>6yr4,.5,56y6>>>4gfr>>.",
"4>>6g3:>>:16>$:44:O>61:>>:0p6>>.w>>6g3:>>:16>$:.5:O>61:>>:-g6>>.",
"4>>o4:3661:>>q>%4>q>>:p660:4o>>.w>>o4:-661:>iq>.5>q>>:gm6-:4o>>.",
"X>>z>>62l>>>x4>4X>4u>mey2>>>p>>.4>>1>>62l>>>uh>.4>4u>r:l2>>>z>>.",
"4>4u>>6l2i>>p>>44>>z6:628>>>uh>.w>4u>>6l2>>>z>>.5i>Utr62l>>>x4>.",
"4>q6>:1>>3:4o>>44>in.;0>>1:>>q>.w>O6>:1>>3:4k>>.5>6o4:1>>1:>>q>.",
"4:$m:1:>>:3g6>>44>t:g0:>>:16><:.w:$m61:>>:3p>>>.5m::p1:>>:16>O:.",
"4,46vr>>>4pf6>>44rr6fg4>>>6y64,.w956y6>>>4pc6>>.4r66fg4>>>6y64,.",
".$6v6>6u1o>6a6>4Xr6d66opu>>6y6$.4<6y6>6u1o>6y6>.466y66opu>>6y6$.",
"$,164$q4>>>>63:%X:06>>>>4qO4619$q,164$q4>>>>6-:j5:-6>>>>wqO461A$",
"V19<,:>>>>>>>:3..0:>>>>>>>:,O,1+21,O,:>>>>>>>:3o4-:>>>>>>>:,O,1+",
"@+$..........jjN j........j..$+Y#7$...........jTCj..........j$7K",
"*89555555554454BH4555555554j4q8*I895555555h4554RZ455555555X.5q8*",
"=1,O,:>>>>>i>:0%43:>>>>>>>:q$,1+21,<,:>>>>>i>:1o4-:>>>>>>>eq$,1=",
"O,165Oq4>>>>63:44:36>>>>4q$5619Oq,165qq4>>>>r0:.5:36>>>>4O$5r1,O",
"4<6s6>>upo66d6>X4>6a66opu>>6y6$.wO6y6>iugo66y6>.5>6y66opu>>636$.",
"X,46s66:>4gb6>>4X>>6Sg4>>>6y64,.4,46y:rm>4gc6>>.5>>6Sg4>>>6364,.",
"4:$>614m>:0g6>>44>>6g3e>>:16>$:.4:<>r3h>>:1g6>>.5>>6g3:>>:16><:.",
"4>Oirh1i60:4o>>44>>o4:-i61:>iq>.w>O6:51>60:4o>>.5>>o4:->61:>6q>.",
"4>4M:>>l2>>>p>>44>>->>>2l>>>uh>.w>4x6>>l2>>>g>>.5>61>>>2l>>>xh>.",
"4itz>>62li>>uh>44>4u>>6l2i>>1>>.wrt1>>62l>>>uh>.5>4u>>6l2>>>p>>.",
".t6o4e3>>1:>>q>44>q>>:1>>3:4o>>..r>o4e->>1:>>q>.h>q>>e1>>-:4j>>.",
"%6>6p0:>>:16>$:44:$>61:>>:3p>>>.X>>6g1:>>:16>$:j5:$>6p:>>:3g>>i.",
"X>>6fg4>i>6v64,%4,56y6>>>4gc6>>.w>>6fg4>>>6y64,.5,5636>>>4pc6rt.",
"4>6d6ijgu6>6sr$44<6y6>6ugo66ar>.w>6y6ijpx6>6y:$.5<636>6xpo>:3e>.",
"4:06>>>>hq$.t1,<q,164<q5>>>i6-:.w:16>>>>hq$4619$q,164Oq5>>mt:-:.",
".0:>>>>>>>:q$91=V19<,:>>>>>6>:3.4-:>>>>>>>5qO,17D1,$,:>>>6:6>:-.",
" ............$=@#+q............ C............<+KL+q......nk.... "
};
