/* XPM */
static char *_443d8a88eab4f58a8e61c733abae624iLAnrBmRhDbMKCRD[] = {
/* columns rows colors chars-per-pixel */
"64 64 222 2 ",
"   c #261B07",
".  c #2A1D07",
"X  c #2A1D09",
"o  c #271C08",
"O  c #301C0B",
"+  c #2D210B",
"@  c #33240D",
"#  c #39240A",
"$  c #3D2B13",
"%  c #352812",
"&  c #392F2A",
"*  c #1D1000",
"=  c #451E00",
"-  c #582907",
";  c #532B0C",
":  c #5F2F09",
">  c #412D16",
",  c #4C2F13",
"<  c #483116",
"1  c #593618",
"2  c #5A3616",
"3  c #4E2A0C",
"4  c #642D04",
"5  c #693509",
"6  c #653008",
"7  c #673716",
"8  c #79390C",
"9  c #4D3A2C",
"0  c #723E23",
"q  c #5D411C",
"w  c #7A4319",
"e  c #5B4525",
"r  c #5D472E",
"t  c #57483C",
"y  c #4D4132",
"u  c #674728",
"i  c #6C4526",
"p  c #794526",
"a  c #6D542D",
"s  c #674C38",
"d  c #664D36",
"f  c #6A5339",
"g  c #775839",
"h  c #775635",
"j  c #78522F",
"k  c #7B643C",
"l  c #584D48",
"z  c #564C4B",
"x  c #5C5449",
"c  c #5C5353",
"v  c #665549",
"b  c #6F584F",
"n  c #6D5942",
"m  c #765B46",
"M  c #745E4D",
"N  c #665A58",
"B  c #6B5C55",
"V  c #7B634A",
"C  c #6D615C",
"Z  c #6E6457",
"A  c #7D6958",
"S  c #766459",
"D  c #675D65",
"F  c #776B67",
"G  c #796A64",
"H  c #7E6F69",
"J  c #833C09",
"K  c #864419",
"L  c #954812",
"P  c #A34D18",
"I  c #834A29",
"U  c #875937",
"Y  c #875534",
"T  c #92532D",
"R  c #876539",
"E  c #98683A",
"W  c #956B3C",
"Q  c #9B723D",
"!  c #AB652A",
"~  c #A7753B",
"^  c #B36B35",
"/  c #A5592F",
"(  c #C47038",
")  c #865D42",
"_  c #886648",
"`  c #8B6A43",
"'  c #946B44",
"]  c #9A754A",
"[  c #866A54",
"{  c #996C56",
"}  c #8B715A",
"|  c #9E7A54",
" . c #987759",
".. c #997554",
"X. c #8B7348",
"o. c #A77849",
"O. c #A4784A",
"+. c #A97C55",
"@. c #A37C58",
"#. c #B97B54",
"$. c #B27347",
"%. c #836E64",
"&. c #877467",
"*. c #8B7465",
"=. c #947A64",
"-. c #917A71",
";. c #A77F62",
":. c #C37D53",
">. c #C97A4A",
",. c #BA813E",
"<. c #C9853D",
"1. c #9D8255",
"2. c #B98349",
"3. c #A88457",
"4. c #AA845B",
"5. c #B68659",
"6. c #BB8A5B",
"7. c #B7925C",
"8. c #A78347",
"9. c #998473",
"0. c #9A8369",
"q. c #AB8562",
"w. c #AD8A64",
"e. c #A88668",
"r. c #A48464",
"t. c #B58765",
"y. c #B38C6A",
"u. c #B78C64",
"i. c #B7956A",
"p. c #BD936A",
"a. c #BC9265",
"s. c #AE9178",
"d. c #A7907E",
"f. c #B99676",
"g. c #BF9B71",
"h. c #A88B75",
"j. c #C98948",
"k. c #CB8247",
"l. c #D38948",
"z. c #CE944D",
"x. c #D7944D",
"c. c #C88959",
"v. c #C38456",
"b. c #D38857",
"n. c #D98F50",
"m. c #CA945B",
"M. c #CB9457",
"N. c #D89759",
"B. c #D39B5A",
"V. c #E39D58",
"C. c #EA9B53",
"Z. c #D9A05B",
"A. c #E8A45B",
"S. c #F5A75A",
"D. c #C98B63",
"F. c #CB9767",
"G. c #C49669",
"H. c #D59B65",
"J. c #D4996B",
"K. c #CC9D73",
"L. c #C59A76",
"P. c #E19D62",
"I. c #C9A16B",
"U. c #DAA26A",
"Y. c #D5A267",
"T. c #CBA377",
"R. c #CBA37E",
"E. c #DAAA7A",
"W. c #D7A474",
"Q. c #DCB178",
"!. c #EDAA63",
"~. c #E8A768",
"^. c #E4A96D",
"/. c #E3A66B",
"(. c #F5AC67",
"). c #F8B36C",
"_. c #E3A671",
"`. c #EBAC74",
"'. c #E3AD7B",
"]. c #EBAE7A",
"[. c #E3AB74",
"{. c #F2AF75",
"}. c #EAB17A",
"|. c #EDB176",
" X c #F3B274",
".X c #FAB673",
"XX c #FDBA76",
"oX c #F3B47A",
"OX c #F8B77C",
"+X c #FDBB7C",
"@X c #F7B87A",
"#X c #AF9886",
"$X c #BCA592",
"%X c #C39E85",
"&X c #CDAD8F",
"*X c #DCAE82",
"=X c #D5A886",
"-X c #DCB289",
";X c #DAB088",
":X c #D6B596",
">X c #E5AE80",
",X c #EBB788",
"<X c #E8B586",
"1X c #F2B482",
"2X c #F9B785",
"3X c #F4BA84",
"4X c #FABB83",
"5X c #F4BC8B",
"6X c #FABD8B",
"7X c #E6BB95",
"8X c #F5BE90",
"9X c #D6BAA4",
"0X c #FEC185",
"qX c #FAC28C",
"wX c #F6C293",
"eX c #FDC999",
"rX c #FBC392",
"tX c #ECC699",
"yX c #EDCEB5",
"uX c #F8E0B4",
"iX c #F1D9C6",
"pX c #F5E7D5",
/* pixels */
"K j.<.A.N.C.A.N.V.V.x.x.N.j.l.j.B.j.7.p.G.i.I.g.T.a.f.G.G.T.T.T.F.I.i.a.I.a.T.T.7.a.G.G.H.!.S.A.A.A.!.!.A.A.V.l.z.l.<.<.,.,.<.( ",
"1 ^ x.N.V.x.V.P.N.V.V.V.V.l.l.<.j.T u m g u f g f f f g g f f V m V V [ g k g k g g k g o.N.!.!.A.S.!.!.A.N.Z.z.j.l.x.l.j.j.<.^ ",
"< ~ <.C.x.A.N./.V.V.V.V.P.x.x.x.<.~ = = e u u u u u e u e q e e e e u 1 1 u e 1 q j 7 O K U.A.!.!.!.~.U.N.x.N.b.j.j.l.j.<.<.x.( ",
"> ^ S.A.A.A.~.!.A.!.!.!.~.~.!.V.A.x.j.~ R ~ Q Q Q Q ~ Q E 8.Q Q Q Q E ' ] ] ' X.E Q E 2.~.(.!.!.!.A.~.Z.N.m.N.N.j.>.j.>.l.<.<.! ",
"R x.(.(.(..X X).).).!.(.).)..X(.).S.S.S.x.$.2.2.z.2.2.2.2.2.$.8.2.3.E ~ x.z.z.z.N.x.S.).).XX).).).^.Z.^.U.Z.H.b.$.2.b.b.v.v.j.! ",
"N.S.S.(..XXX(.).).).)..X.X+XXXXXXX.X).).A.B.m.W.U.Y.6.6.7.7.a.5.+.a.u.p.W.B.U. X(.).).XXXX+X+XXX).`.^.[.^.I.H.v.6.v.v.v.v.j.Z.<.",
"S.S.).+X.X).~.)..X.X).+X+X0X4X+X).).(. XU.I.G.3.3.] o.| o.3.4.] t.4.' 3.] Q E +.m.m.{.|.}.OX3X@XXXoX[.[.Y.W.F.7.6.v.v.5.5.c.B.2.",
"S.S.@X3XXXXX}.+X+X+X.X0X0X0X4X+X.X).~.U.i.y.` o.3.3.7.| 3.3.' p.@.| 4.] 1.u.W.7.k 3.O.m.<X}.(.).+X@X^.E.I.U.H.m.G.5.v.v.2.v.N.2.",
"!.!. X}.3X}.}.3X4X0X3X3XqX0X0X X XG.o.+.q.L.t...R ] ' U ` | 3. .| ] ` g ' ] R ] y.t.r.+.T.G.K.U.U.}.^.U.U.U.U.m.H.H.m.F.m.m.m.2.",
"U.U.W.E.'.'.'.7X}.<XE.,X}.}.}.U.o.Q 5.m.K.) E o.o.7.a.G.G.u.3.a.p.G.T.G.p.i.+.] ' R t.K.W.G.+.G.B.U.U.}.U.}.U.}.~.].'.[.^.~.H.~ ",
"I.E.*X*X-X-X-XtX7X,X,X<XE.T.T.+.X.t.4.U o.+.4.G.G.7.o.Q Q Y Y Q ] T ' E E ] t.p.I.5.4.o.4.a.7.7.m.I.[.}.0X0X4XoX4X4XOXOXoX X~.^ ",
"T.W.'.-X>X<X,X,X7X-X-X7XT.a.' ] ..h ) q.4.7.o.' E ^ ~ $.v.l.>.j.>.b.b.v.#.$.E E ] i.T.T.G.E o.i.3.O.m.'.}.OX0X0X0X6XqX4X.X X~.c.",
"W.E.E.E.-X7X<X-X;X7X>XT.5.' y.y.) ) 4.T.@.U E ~ >.v.c.D.w.h.9.9.&.9.0.4.a.m.c.>.! E O.@.T.a.4.p.p.T.o.H.`.3X4X X0XqXrX0XoXOX}.2.",
"K.E.>X*X<X;X>X<X}.W.E.6.] G.o.' o.G.7.E / ^ #.G.h.s.s.9.&.Z x l l l l c B %.-.h.J.b.>.^ 8.T.p.5.| K.5.5.F._.4X+X3X3XqX5X3X0XE.5.",
"Y.Q.>X-X}.'.'.>X'.E.G.@.4.@.R 5.D...R Y h o.f.&X$X9.B 9 %       %         % 9 x X.t.D.Y i Q i.G.a.R 4.3.7.W.}.oXoXoX3X3X}.}.Y.5.",
".XXX X.XoXOXOX+X<XF.O.....) 4.L.+.' ' > + f 9X#Xm % @ , r R ] R Y R i a 9 @ o   & v S + + 1 o.G.D.5.3.f.4.u.U.OX0X0XoXoX X}.G.' ",
"(.@XoX{.OXOX{.2XT.+.w.6.$.5.t.6.$.^ U + o > *.1 = a a V B.@X+XXX.X.X.X X^.m.n q   * $   X < $.o.i.F.4.+.W.8.a.4X2X0XOX}.oX2XJ.R ",
".XXXOX2X+X.X{.{.G.' f.@.~ 3.q.o.$.v.0.+ o @ % j a g W  X+X+X.X.X.X.XOX+X+XOX^.R e r     o u J.^ O.T.p.o.u.w.4.E.2X2X0X5X5XrXqXE.",
"XXXXOX).(. X].'.4.@.@.) y.y.+.$.c.&Xs.+ + + 1 u u +.|.|.+X.X.X.XXXXX+X+X+X+X+Xc.e 1 +   o n =Xb.$.y.T.m.X.4.6.f.}.OXOX4X2X1X3XG.",
"XX X XOX.X X[.K...@.) ..i.] o.:.T.E.#X+   @ Q 8.` OXXX.XXXXXXX+X+XOXOX+X+X+X+X|.f g +   o o #XI.>.q.I.G.e.4.2.w.T.rXtXeXeXI.B.7.",
" X2X2X X`.1XE.y.@.+.t.+.t.+.:.:.&XZ.9.o   + R 3.`.+XXXOX4X+X+X+X+X X|.XX+X+X+X+XJ.g +   + @ v -Xb.$.G.T.a.u.g.u.D.yXpXiXpXyXT.'.",
"{.6X5X[.H.>XT.@.t.@.+.4.t.5.$.J.B.Q.k     @ 8. X+X+XXX+X4X+X+X+X+X+XXXXX.XXX+X+X+X] +   @ , X $XJ.^ 6.T.K.5.i.5.I.*XuXiXpXuX1X}.",
"OXoX5X8X<XW.p.4.r.@.4.p.+.v.:.=Xz.yXe o + @ W @X+X+X+X+X,X XXXXXXX+X+X+X+X.X.X+XXXO.    % a > 9.-X>.#.f.F.O.0.i.i.W.4X3X}.oX+XW.",
"{.1X8X5X>XE.G.t.t.} 7.p.t.#.:.9Xz.9X1 +   @ 8.@X+X+X+X+X5XXXXX+X+X+X+X+X+X+XXX.X+X]     @ j 1 } 7Xv.O.y.D.u.e.u.i.W.OXoX X X^.'.",
"2X2X1X].B.m.i.w.;.@.y.@.+.5.#.J.z.&X& +   @ F.+X+X+X+X4X5XXX+X+X+X+X+X+X+X.X+X.X+XO.    % U $ c &Xj.5.y.f.u.G.w.i.G.U.}. X`.oXU.",
"`.].`.W.5.o.' _ ) E _ _ _ p / W.Q. .$     @ H.XX+X+X+X4XXXXX+X+X+X+X+X+X+X.XXX.X+XO.X   % l 9 9 %XT j 4.5.O.+.| 3.] #._.OX].[.^.",
"[.U.J.J.G.5.' ' R ' j _ { { $.J.-X_ ; +   $ U.+X4XXX+X+X+X+X+X+X.X.X+X+X+X.X+X+X+X5.X   # ) 1 1 %X$.U ..O.| 3.' W 3.T.'.].1X`.U.",
"[.W.'.E.G.2.O.Q +.4._ Y 0 ) $.W.tX{ 7 +   $ U.XX+XXX+X+X+X+X+X+X+XXXXXXXXXXX+X+XXX6.+   % p I 0 %X$.U U 8.t.y.| R ] K.}.1X]._._.",
"'.E.W.U.U.U.m.2.` U m E ~ $.$.yXpX{ I X   > U.XXXX+X+X+X[.+X+X+X+X+X+X+XXXXXXXOX+X6.@   @ 0 E K L.v.$.8.o.{ ` | c.E.1X<XoXoX[.H.",
"_.'.'.J.U.H.m.m.3.' ..$.z.>.#.yXpX=.0 X o > U.OX XoX+X+XOX+X+XXX+X+X+X+X+X+X+X+X+Xm.+   X K / I %Xc.m.^.m.y.4.u.>X6X6X2X2X].`.J.",
"|.}.'.'.}.}.'.[.5.] ' o.B.$.F.9XtX{ i X o < U.OX.X+X+XXX+X4XXXXX+X+X+XXX+X+XXX+X+XJ.X X X I / 0 %XJ.J.~.j.q.@.m.qXqX5XrXrX3X}.U.",
"3XqX,XwXwX5XwXwXJ.3.@.F.3XD.J.G.6 U 0 X o $ U.[..X@X+XOX].5XXXOX+X+X+X+XXX+X.XOX+XU.@ X X 0 T i $XJ.J.OX~.4.4.E.5XwXrX8X5XrX2X~.",
"3XwXwX5X5X4X5XwXrX5XqXrX8XD.D.:X&X) 7 + o % U.@XOXXX+X@XoX^.XX+X+X+X+X+X+X+X+XXX+XU.$ o + 7 T K f.J.J.5X0X}.3X0XeXrXeXeXqXqX<X^.",
"3X5XwXwX5X5X5X5X1X3X3X5X5Xv.M.B.pX[ , o o $ `.+X+X+X+X+XOXXX+X6X+X+X+X+X|.|.OXXX+XU.> o X j 0 , s.b.F.6X0X3X0XrXeXeXrXeXeXqX1X~.",
"3XqX5X5X5X1X5XqXoX,X1X3X8Xv.#.Y.pX) 1 o o < +X+X+X+X+X|.OXoX+X4X+X@X+X+X+XOX+X+X+XU.> o X i p , @.:.J.6X4XrX2X5XeXwXrXeXeX3X'.^.",
"3X0X5X5X4X3X3X4X5X5X1X5XrXD.#.M.iX) 7     1 +X+X+X+X+X@X+X+X+X+X+X+X@X+X+X+X+X+X+XU.$ o + i T 4  .c.D.8X5X8X3X8XrXwXqX0XqX1X X^.",
".X+X3X0X0X4X4X<X3X<X1X5X8XD.v.z.iX) 7 X o q +X+X+X+X+X+X+X+X4X4X+XXXOX+X+X+X+X+X+XU.> o + I T 6  .:.D.,X;X*XE.-X<X,XrXqXeXrX|.`.",
"XX+X+X+X+X3X3X<X5X<X<X3X,X:.D.B.uX) 7 o o < +X+X+X+X+X+X+X+X4X+XXX+XoX+X+X+X+X+X+XU.> o . I T 2  .:.#.=XK.K.K.G.W.>X5XoX0XqX0X`.",
"XX+X+XXXXX+X3X<X3X,X,X}.'.#.:.Y.yXY 2 O o $ OX+X+X+X+X+X+X+X+X+XXX+X+X+X+X+X+X+X+XU.$   + 8 T 4 ;.c.D.K.D.K.E.G.K.E.2X'.3XrX3X'.",
".XXX+X+X+X+X<X<X'.>X>X'.*Xv.:.E.W.) 6   o @ `.+X+X@X+XOX+X+X+X+XXX+X+X+X+X+X+X+X+XU.>   o 7 K 7 y.:.#.=XW.E.*XE.K.<X6XOXOX,X,X'.",
"+X X X X X}.oX<X`.'.].>X*X:.#.-XN.T : o o @ J.4X+XOX+XOXOX+X+X+X+X+X+X+XOX+X+X+X+XU.< o + 2 5 - y.v.c..X}. X}.`.|.OX,X<X5X3X<XW.",
"].`.`.`. XOX5X1X1X1X3X,X,X:.#.E.E.s ; . o % H.+X+X+X+X0X4X+X+X+X+X+X4X@XOX+X+X+X+XU.> o + 7 2 > y.c.D.XX6X4X4X2X3XqXwX5X6X3XoX`.",
"[.`.`.~.`.}.oX1X<X6X<X<X,Xv.#.U.-X) 7 .   > /.+X+X+X+X+X+X+X+X4X+X4X5X+X4X4X+X+X+XU.$ + o = 8 4 w.c.D..X2X2XOX4X4XqXwXwXrX3X|.^.",
"'.'.].'.{.oX}.oX1X1X>X>X7X:.#.H.7XI 4 O   > U.+X+XXX+X+X+X3X4X4X+X+X3X[.5X4X+X+X+XU.$ o + : 5 - e.>.D.).+X+XOX2X4X6XwXwXrXoXoX^.",
"}.,X}.}.oX].`.1X<X<X>XE.=Xc.#.B.-Xp : X X > U.+X+X+XXXXX+X4X|.OX+X+X+XOX5X+X+X+X+XU.> + o - 5 4 y.b.D.(.{.{.{..X@X5XrX,X5X<X}.U.",
"'.U.~._._.W._.'.>X>X<X<X*XW.F.H.*XI 7 X   $ U.+X+X+X+X+X+X+X2X6X+X4XXXOX4XXX+X+X+X^.> o + ; 8 4 h.D.D.~._.{.{.{.`.'.<X-X5X}.}.U.",
"H.m.N.J.J.J.W.'.>X<X>X7X-XF.W.E.*XI 6 X   % U.+X+X+X+X+XXXXX+X4X4X4X+X+XXXXX+X+X+X|.> o + ; 4 - s.D.J.`._.`.`.`.~.W.E.E.tX<X'.Y.",
"H.H.H.(.H.J.U.U.'.W.W.E.E.E.E.*X>Xj ; X   @ U.+X+X+X+X+X+X4X4X+X+X+X+X+X+X+X+X+X+X[.$ o   3 4 - #XJ.F.`.P._.^.P.`.H.T.T.-X-XE.I.",
"N.m.H.H.J.U.F.W.K.K.W.J.U.a.W.E.-Xu 3 X   X U.+X+X+XoX+X+X+X+X+X+X+X+X+X+X+X+X+X+XU.>   . 2 - O f.L.J.>XP.J.~.~.~.J.F.T.=XE.T.u.",
"$.$.G.m.D.D.F.T.K.E.E.G.y.t.=X*XW.j <   X X F.+X+X+X+X+X+X+X+X+X+X+X+X+X+X+X+X+X+XU.>   X 1 , > s.y.D.J.}.J.W.J.U.G.6.y.a.G.a.5.",
"a.G.K.F.G.G.a.e.p.f.u.u.t.y.L.E.W.p 5 .   @ c.+X+X|.oX+X+X+X+X+XXX+X+X+X+X+XoX+X+XU.$   . 4 4 4 #Xf.u.D.G.y.u.5.a.u.t.y.t.4.4.o.",
"f.L.L.L.p.p.f.w.t.y.q.u.t.i.i.i.W.K 5 .   X 6.+X|.+XOX+X+X+X+X+X+X+X+X+X+X+X+X+X+XU.$   X : 4 - y.f.e.y.u.i.y.f.t.y.q.y.u.3.3.@.",
"q.q.y.w.y.w.i.e.q.p.i.t.t.w.h.Y.g.u : .   @ 6.+X+X+X+X+X+XXX+X+X+X+XXXXX+X+X+X+X+Xc.# o o 4 6 - s.f.e.y.y.p.e.y.w.w.e.y.y.w.@._ ",
" .| q. .3.@.r.@... .| } | { } u.H j J .   . +.XX[.+X+X+X+X+XXX+XXX+X+X+XXXXXXX+X+XH.@ o o ; - > s.=._ ]  .e.t.q.4.r.e.y.w.w...g ",
"V _ ..{  ._  . .{ } _ _ } _ A A N w 8 #     Q XX[.+X+X+X+X+XXX+X+X+X+X+X+X+X+X+X+X/.#   X 6 5 - s.[ ) _ }  .q.@.q.1.r.@.| | ..) ",
"[ [ [ _ } _ _ m _ } V [ V V S S } w 8 O   . 7 H.XXOX+X.XXXXX+X+X+X+X+X+X+X+X+X+XOX2.=   X 6 5 - -.[ [ e. .=.=.@. .0. .| 3.4.| _ ",
"A A [ S V b m [ [ A S V [ M %.[ [ p 7 #   O 8 P P ! ^ ( >.^ ^ ! W 2.b.V.V.n.>.( ! P ; . O 5 5 ; h.m [ =. . .[ } X. . .| q.u..._ ",
"V V S V S _ m [ [ V [ V [ M A M d.u 1 ; # 3 4 4 8 8 w J L K K 8 - w T P P L L L L L 6 # = 6 - = 9.m [ } } } [ _ X.[ _ ..q.+.{ h ",
"V A A } [ m m M [ _ } b m M -.0.9.M f f d f v m m f m v v m m s v v v 0 f v s s s s s y t t y c h.} } } =.*.V V m g m _ { ] ) a ",
"C V S M V b b A m v A [ S S -.*.[ %.S H N C G F F Z G G G S G G A C V S A [ } *.=.%.A S V A C S A [ S V A v t c s s s V V m M 1 ",
"B B B B v v v v b v C A Z M =.*.G -.&.F S C -.&.&.S &.G %.G %.%.F A %.G F S S [ G S S N N S C G x t y 9 & & & 9 x v l v s t s t ",
"N C x x z z l l z l v F V S &.=.-.9.0.F F F 9.9.-.Z A F &.F G F A S S N C G G C C S F N c N B N C x N D z z c C C C N x t t x c ",
"z c v F &.C G B N S G N C G &.%.&.F F F F F -.&.&.G C S G S [ G C G G C N G N C D N c N N D N c N z c C N c N c l c c c l l l l ",
"9 9 9 B S M F &.&.G S N G F G F %.&.C C C C G S C N S S C G F G S G S C N G N N N b b b c N G C N N z c N N c c z z z N B N x c "
};
