/* XPM */
static char *_489f6c7d9ff4209845bbeb976766747p3mDsNcAxora45Ea[] = {
/* columns rows colors chars-per-pixel */
"64 64 222 2 ",
"   c None",
".  c #020102",
"X  c #03030B",
"o  c #0A0B0B",
"O  c #070706",
"+  c #140A09",
"@  c #12110D",
"#  c #020214",
"$  c #0C0B14",
"%  c #030319",
"&  c #07081A",
"*  c #0B0B1C",
"=  c #070816",
"-  c #110E14",
";  c #1C0D13",
":  c #141313",
">  c #1B1314",
",  c #14141C",
"<  c #1A151B",
"1  c #1C1B1B",
"2  c #191917",
"3  c #0E100F",
"4  c #33100F",
"5  c #241B1D",
"6  c #2B1717",
"7  c #3C1415",
"8  c #321B1B",
"9  c #341617",
"0  c #2F0F10",
"q  c #1E201F",
"w  c #25231D",
"e  c #32241E",
"r  c #34291A",
"t  c #0D0D23",
"y  c #0E0D2B",
"u  c #121324",
"i  c #1C1C23",
"p  c #14142A",
"a  c #1A1B2B",
"s  c #171927",
"d  c #191A32",
"f  c #10102A",
"g  c #201F26",
"h  c #1D2124",
"j  c #232323",
"k  c #2B2625",
"l  c #25252C",
"z  c #2B2B2C",
"x  c #2C2927",
"c  c #352625",
"v  c #312926",
"b  c #382829",
"n  c #31322F",
"m  c #2C2C31",
"M  c #262736",
"N  c #332E34",
"B  c #323333",
"V  c #3C3436",
"C  c #35363A",
"Z  c #3C363B",
"A  c #3B3B3B",
"S  c #383A37",
"D  c #2E3332",
"F  c #443E3D",
"G  c #423337",
"H  c #3C423D",
"J  c #5F4D3F",
"K  c #3D3E42",
"L  c #363E40",
"P  c #413E43",
"I  c #3D4144",
"U  c #434444",
"Y  c #4B4B4B",
"T  c #474648",
"R  c #4E504D",
"E  c #4B4D5C",
"W  c #545555",
"Q  c #5B5A5B",
"!  c #585757",
"~  c #645C5A",
"^  c #6C505C",
"/  c #735E59",
"(  c #5B605A",
")  c #676459",
"_  c #585B67",
"`  c #615F60",
"'  c #5F6263",
"]  c #646464",
"[  c #6D6C6C",
"{  c #686868",
"}  c #736E6C",
"|  c #76736E",
" . c #696A75",
".. c #6D7175",
"X. c #747473",
"o. c #7B7C7B",
"O. c #787774",
"+. c #6C716A",
"@. c #855F38",
"#. c #91776A",
"$. c #827A78",
"%. c #8F746D",
"&. c #A27C67",
"*. c #BC947B",
"=. c #F59A5D",
"-. c #F79867",
";. c #FD9E73",
":. c #F59E71",
">. c #EC9B64",
",. c #EFA36C",
"<. c #F5A269",
"1. c #FCAA7A",
"2. c #FAB27F",
"3. c #7C7B82",
"4. c #7D8182",
"5. c #848384",
"6. c #8C8C8C",
"7. c #848589",
"8. c #959595",
"9. c #9B9A9A",
"0. c #999796",
"q. c #9E8E8E",
"w. c #A29B9D",
"e. c #AD9487",
"r. c #A9A49E",
"t. c #9F9FA1",
"y. c #A2A2A2",
"u. c #ACA8A5",
"i. c #ABABAB",
"p. c #A9A4A0",
"a. c #BBA9A6",
"s. c #B7B6AF",
"d. c #B4B4B4",
"f. c #BCBCBC",
"g. c #BEB8B2",
"h. c #AEB4B2",
"j. c #C6B09B",
"k. c #FFB38E",
"l. c #EBAE94",
"z. c #FEB994",
"x. c #F5B291",
"c. c #C7ADA5",
"v. c #C6B1A6",
"b. c #C6BAB8",
"n. c #D6B9AB",
"m. c #F7BDA5",
"M. c #B8C2BD",
"N. c #C3C1BD",
"B. c #CAC7BC",
"V. c #D4C5BC",
"C. c #DFCBBD",
"Z. c #D7CEBC",
"A. c #FDC5AB",
"S. c #F5CAA5",
"D. c #E8C7B9",
"F. c #F4CCB4",
"G. c #FCCBB6",
"H. c #FDCEBB",
"J. c #F1C3B7",
"K. c #EAD0BB",
"L. c #FDD4B5",
"P. c #F6D3BB",
"I. c #FDD3BC",
"U. c #FED9BC",
"Y. c #F4D9BB",
"T. c #BABEC2",
"R. c #C8BDC1",
"E. c #BBC1C2",
"W. c #C4C3C4",
"Q. c #CAC5C2",
"!. c #CDC9C4",
"~. c #C4CBCD",
"^. c #CCCBCB",
"/. c #C7C8C6",
"(. c #D4CCC6",
"). c #DCCDC6",
"_. c #D3CDCC",
"`. c #DACDCA",
"'. c #D1C1C1",
"]. c #DBD3CD",
"[. c #D6D3CE",
"{. c #CBCED2",
"}. c #C3CED2",
"|. c #D6CFD0",
" X c #CED2D3",
".X c #D4D4D4",
"XX c #DCD4D2",
"oX c #DCDAD5",
"OX c #D4D5D9",
"+X c #DBDBDB",
"@X c #D7D8D8",
"#X c #C7D1C9",
"$X c #E2CEC4",
"%X c #EDCDC3",
"&X c #EACEC9",
"*X c #FDCEC5",
"=X c #E5D3CA",
"-X c #EAD3C8",
";X c #F4D5C4",
":X c #FDD4C2",
">X c #FDDAC3",
",X c #F3D5CA",
"<X c #FCD3C9",
"1X c #F5DBCB",
"2X c #F9DAC8",
"3X c #E2D6D3",
"4X c #E5DBD5",
"5X c #E3DBD9",
"6X c #EADCD3",
"7X c #F9DAD0",
"8X c #E8E2DE",
"9X c #F8E3D5",
"0X c #DEDEE0",
"qX c #E4E4E3",
"wX c #EAEAE7",
"eX c #E5E7EA",
"rX c #EBE6EC",
"tX c #E5EAEC",
"yX c #EBEAED",
"uX c #E7E6E4",
"iX c #F1F1F1",
"pX c #EDEAEC",
/* pixels */
"                                                                                                                                ",
"                                                                                                                                ",
"                                                                                                                                ",
"                                @X                                                                                              ",
"                              9.. [                                                                                             ",
"                              9.. {                                                                                             ",
"                          8.8.y.d.i.6.7.+X  0X6.0.8.8.8.8.8.8.8.8.8.8.8.8.8.8.8.8.6.                                            ",
"                          . . i.iXW.. . OX  ^.. . . . . . . . . . . . . . . . . . . +X                                          ",
"                    tX.X^.o.[ d.qXf.[ ) d.+Xd.] X.+.} +.O.X.X.| X.X.X.X.X.X.X.o.$.X.f..XoX                                      ",
"                    i.. B @XqX|.W. X.X.X{ . ] OX X X|.OX@X@X@X@X@X@X@X@X@XOX@X+X8XyX] . 8.                                      ",
"                    u.. T @X+X@X^.|.W..X{ . ]  X/.^.}.}. X@X.X[.OXOXOXOXOXOXOXOXqX0X' . 8.                                      ",
"                7.! 8.W.N./..X^..Xd.! ! t.f.f.^.(..XOX X XOX.X.XOXOXOX.X.XOX.X@X+XOX{.{.d.! X.wX                                ",
"                A . 0.tX+XOX^.^.OXf.. O u..X.X^._.OXOX.X.XXX.X XXXXX.XXXXXXXOX.X].[.qXyXf.. . tX                                ",
"                ! . 8.qXOX^./.M.i.9.[ { f..X/. X^. X.X[.=X=X].OX].3X=X=X-X=X=X=X%X3X5XyXf.. S wX                                ",
"                W . 8.qX.X.X.XO.. Y W.^.W.^.|.^.{.{._.&X;X;X].OX,X,X1X:X>X:X:X;X>X1X4XuXE.. l                                   ",
"                W . 0.wXoX^..X7.. _ W.d./..X^.^.{.^.!.$X>XY.]. X%X:XP.I.I.I.:XH.I.P.6XyXh.. x rX                                ",
"                ! . 9.+X@X^. X4.X ! N.f.^.|.{.}.!.-X:XI.:X,XXXOX-X,XL.I.*XL.L.<XI.L.0XyXd.. z eX                                ",
"                z . 6.iXqX.XE.4.. ! E.R./.^.^.(.).-XP.F.:X,X).XXY.>XL.I.;XY.Y.,XI.P.qXyXs.X b tX                                ",
"                i.y.9.t.y.^.^.*.. ! W.T./.^.`.-XC.;X>XI.U.;X-X=XK.*XH.:X<XA.z.m.:XP.8XtXs.. k tX                                ",
"                    h.. z ^.@X7.. ! W.E.~.|.=X;X:XI.I.I.F.L.>X:X1X<X*X:XG.k.-.1.;X:X8XiXg.. x tX                                ",
"                    d.. Y d.^.o.. ! N.f.~.^.$X;X:XH.I.:XU.I.H.H.P.H.H.>X:Xk.>.2.U.P.6X9Xg.X v tX                                ",
"                    i.. B z z 1 X ! b.f.~.^.$XP.H.I.G.F.:XP.H.>XP.:XI.P.H.k.=.1.U.I.,X1Xc.. r eX                                ",
"                    d.. . . . . . W b.B.^.^.$X>XI.I.2X2X1X2X>XG.>X<XP.H.U.z.>.x.L.G.U.>Xc.. r                                   ",
"                    OXb.M.f.^.X.X ~ V.B.^.^.).:X:XF.>Xn.#.e.K.2XH.L.P.>XU.*.J *.l.m.F.U.c.. r rX                                ",
"                              y.. ) P.m.).B.).;XU.F.2Xe.. . %XH.H.L.H.H.9X%.. G ,.,.A.U.j.. e tX                                ",
"                              y.. ) D.J.[.~.$X:XG.U.2Xn.J } &X;X;X;X>X2X-Xe.J #.;.;.A.>Xc.. e rX                                ",
"                              t.X ) J.J.`.}.).:X:XF.:X&XN.^.=XC.=X(.-X=X].;X:XJ.<.;.A.>Xc.O c rX                                ",
"                              9.. / J.D.].!.).:X:XU.7X&X_.^.5X].oX0X3X.X].,X;XG.,.,.S.>Xv.. c rX                                ",
"                              i.. ~ Q.b.%XK.P.>X>XD.D.a.~ [ X.| | +.| o.{ b.,XD.<.<.S.U.c.O v tX                                ",
"                              9.. _ E.M.%XI.:X:X,XV.(.q.. . . . . O O . . a.=XD.-.-.A.U.c.. k tX                                ",
"                      ^.OX.X+X6.. Q E.M.$X*X%XK.=X!.].r.( } | { $.| | o.( b.oX=Xl.l.%X<Xc.. v tX                                ",
"                    i.. . . . . . ^ R.M.!.'./.B.V././.^.#X!.(.^.[.XX3X].5X4X].).4XZ.+X6Xa.. b yX                                ",
"                    h.. z - 1 1 . Q f.W.^.B._./.!.!.Q.Q.!.!.!.!.(.5X].3X].XX3XXX3XXX`.XXd.. j                                   ",
"                    d.. A [ } Z . q T T Y U O.!.R.Q.!.Q.!.Q.Q.N._.3X[.XXXXXXXX3X`.`.$.~ Y @ S tX                                ",
"                    y.O . X.5.Y . . . . . . [ `..X|..X_.[.(.`.|.[.4X4X6X5X4X5X3X4XuXF O . . . qX                                ",
"                    /.0.8.! ~ B + @ : 3 U T Q w.w.0.w.0.9.8.9.0.r.r.r.r.u.p.u.u.r.u.8.9.u.8.9.                                  ",
"                          . . 5 c 6 . . ] 4.{ . . . . . . . . . . . . . . . . . . . +X                                          ",
"                        qXY A n 0 8 5 O _ X.W 3 5 q 5 i - < i 1 < i g i < l w 5 z O ^.                                          ",
"                              8.. V [ } U . j B m m D l $ , u , s s * = X m C S U z Y . 0.                                      ",
"                              y.. K o.o.S . 2 B N K L L = * # X % % # % X C I I T T 1 . 9.                                      ",
"                          i.y.X.Y W R R z i l 2 g l M d = u E W E _ E t & M M z z l n > ) i.t.                                  ",
"                        qX. . W 5.{ . . D A x O . X * * & M ..3.X.5. .t p y t t . . B U k . O 0X                                ",
"                          ] ! ] { ' . o l A k . X * u f = s _ ..{ .._ t d y y y . . B J S 5 z                                   ",
"                              8.. l . . D z z . X X % % # # t = = t t # # p s * O . D A D . 1 wX                                ",
"                              8.O . @ . l A l . = = # % # % t & d y y % # t s , . . A I B . q 8X                                ",
"                              +X^.i.O $ g l : . . & * u * * f p t p a t p t * = . . i m j X 1 uX                                ",
"                                  qX. g X # X O O - & * & * & * * s t * u % # X . . X X $ X q uX                                ",
"                                  @X. , $ u & X . s i a s a s d d M a M a a , s X . * * a . q wX                                ",
"                                  .X. z $ : X X . B S Z m D K G K P K I P P K C X . $ * g $ B                                   ",
"                                  OX. . . , $ . . B K Z D C C B C H H H H H S D . X o - X . . wX                                ",
"                                    @X@X[ . j o . N N N C D D B V F P F J S J D . . l o 3.+X@X                                  ",
"                                        3.. O . . l B Z H S B B L U K K K L I L . : . . 8.                                      ",
"                                        i.6.o.. @ k v c b b b b V G G G G G V V . O 6.6.f.                                      ",
"                                            +X. 5 8 9 4 9 9 7 7 4 7 7 7 7 7 7 4 j . ^.                                          ",
"                                            ^.. 5 5 9 6 8 0 9 6 8 e 8 8 9 8 8 6 1 . +X                                          ",
"                                            OX. q : ; @ @ > j v k v g ; ; ; > @ 2 O .X                                          ",
"                                            .X. j o : o 2 o . . . . . : o o 1 . 1 . @X                                          ",
"                                            OX. j 1 : : o x y.i.t.u.8.. : 1 : 1 k . .X                                          ",
"                                            .X. . . . o . z         qX. . O . . . . @X                                          ",
"                                            @X5 W Y T T Y {         @XT Y Y Y R ! k +X                                          ",
"                                                                                                                                ",
"                                                                                                                                ",
"                                                                                                                                ",
"                                                                                                                                "
};
