/* XPM */
static char *_6781873cec94a1c985609b4a9c78b3dK9B9bDaS5rJpPLeU[] = {
/* columns rows colors chars-per-pixel */
"64 64 220 2 ",
"   c None",
".  c #020102",
"X  c #03030B",
"o  c #0B0B0B",
"O  c #070706",
"+  c #140A09",
"@  c #12110D",
"#  c #020214",
"$  c #0C0B14",
"%  c #030319",
"&  c #07081A",
"*  c #0B0B1C",
"=  c #070816",
"-  c #160D14",
";  c #141313",
":  c #1B1314",
">  c #14141C",
",  c #1C1B1B",
"<  c #191719",
"1  c #0E100F",
"2  c #33100F",
"3  c #241B1D",
"4  c #2B1717",
"5  c #3C1415",
"6  c #321B1B",
"7  c #341617",
"8  c #2F0F10",
"9  c #1E201F",
"0  c #25231D",
"q  c #32241E",
"w  c #34291A",
"e  c #0D0D23",
"r  c #0E0D2B",
"t  c #121324",
"y  c #1C1C23",
"u  c #14142A",
"i  c #1A1B2B",
"p  c #171927",
"a  c #191A32",
"s  c #10102A",
"d  c #201F26",
"f  c #1D2124",
"g  c #232323",
"h  c #2B2524",
"j  c #25252C",
"k  c #2B2B2C",
"l  c #2C2927",
"z  c #352625",
"x  c #312926",
"c  c #382829",
"v  c #31322F",
"b  c #2C2C31",
"n  c #262736",
"m  c #332E34",
"M  c #323333",
"N  c #3C3436",
"B  c #35363A",
"V  c #3C363B",
"C  c #3B3B3B",
"Z  c #383A37",
"A  c #2E3332",
"S  c #443E3D",
"D  c #423337",
"F  c #3C423D",
"G  c #56483E",
"H  c #3D3E42",
"J  c #363E40",
"K  c #413E43",
"L  c #3D4144",
"P  c #434444",
"I  c #4B4B4B",
"U  c #474647",
"Y  c #4E504D",
"T  c #4B4D5C",
"R  c #545555",
"E  c #5B5A5B",
"W  c #585757",
"Q  c #645C5A",
"!  c #6C505C",
"~  c #735E59",
"^  c #5B605A",
"/  c #676459",
"(  c #585B67",
")  c #615F60",
"_  c #5F6263",
"`  c #646464",
"'  c #6D6C6C",
"]  c #686868",
"[  c #736E6C",
"{  c #76736E",
"}  c #696A75",
"|  c #6D7175",
" . c #747473",
".. c #7B7C7B",
"X. c #787774",
"o. c #6C716A",
"O. c #855F38",
"+. c #91776A",
"@. c #827875",
"#. c #8F746D",
"$. c #A27C67",
"%. c #5ED660",
"&. c #BC947B",
"*. c #F59A5D",
"=. c #F79867",
"-. c #FB9E72",
";. c #EC9B64",
":. c #EFA36C",
">. c #F5A269",
",. c #FCAA7A",
"<. c #FAB27F",
"1. c #7C7B82",
"2. c #7D8182",
"3. c #848384",
"4. c #8C8C8C",
"5. c #848589",
"6. c #9A8C88",
"7. c #959595",
"8. c #9B9A9A",
"9. c #999796",
"0. c #A29B9D",
"q. c #AD9487",
"w. c #A9A49E",
"e. c #9F9FA1",
"r. c #A2A2A2",
"t. c #ACA8A5",
"y. c #ABABAB",
"u. c #A9A4A0",
"i. c #BCADA8",
"p. c #B7B6AF",
"a. c #B4B4B4",
"s. c #BCBCBC",
"d. c #BEB8B2",
"f. c #AEB4B2",
"g. c #C6B09B",
"h. c #FFB38E",
"j. c #EBAE94",
"k. c #FEB994",
"l. c #F5B291",
"z. c #C7ADA5",
"x. c #C6B1A6",
"c. c #C7BBB8",
"v. c #D6B9AB",
"b. c #F7BDA5",
"n. c #90D78C",
"m. c #B8C2BD",
"M. c #C3C1BD",
"N. c #CAC7BC",
"B. c #D4C5BC",
"V. c #DDCCBD",
"C. c #FDC5AB",
"Z. c #F5CAA5",
"A. c #EAC8BA",
"S. c #F4CCB4",
"D. c #FCCBB6",
"F. c #FDCEBB",
"G. c #F1C3B7",
"H. c #EAD0BB",
"J. c #FDD4B5",
"K. c #F6D3BB",
"L. c #FDD3BC",
"P. c #FED9BC",
"I. c #F4D9BB",
"U. c #BABEC2",
"Y. c #C8BDC1",
"T. c #BBC1C2",
"R. c #C4C3C4",
"E. c #CAC5C2",
"W. c #CDC9C4",
"Q. c #C4CBCD",
"!. c #CCCBCB",
"~. c #C7C8C6",
"^. c #D4CCC6",
"/. c #DCCDC6",
"(. c #D3CDCC",
"). c #DACDCA",
"_. c #D1C1C1",
"`. c #DBD3CD",
"'. c #D6D3CE",
"]. c #CBCED2",
"[. c #C3CED2",
"{. c #D6CFD0",
"}. c #CED2D3",
"|. c #D4D4D4",
" X c #DCD4D2",
".X c #DDDAD5",
"XX c #D4D5D9",
"oX c #DBDBDB",
"OX c #D7D8D8",
"+X c #C7D1C9",
"@X c #E2CEC4",
"#X c #EDCDC3",
"$X c #EACEC9",
"%X c #FDCEC5",
"&X c #EDD3C6",
"*X c #E5D3CA",
"=X c #E9D3C9",
"-X c #F4D5C4",
";X c #FDD4C3",
":X c #FDDAC3",
">X c #FCD3C9",
",X c #F5DACA",
"<X c #F6D8C9",
"1X c #E2D6D3",
"2X c #E5DBD5",
"3X c #E3DCD9",
"4X c #EADCD3",
"5X c #F3D6D0",
"6X c #E8E2DE",
"7X c #F8E3D5",
"8X c #DEDEE0",
"9X c #E4E4E3",
"0X c #EAEAE7",
"qX c #E5E7EA",
"wX c #EBE6EC",
"eX c #E5EAEC",
"rX c #EBEAED",
"tX c #E7E6E4",
"yX c #F1F1F1",
"uX c #EDEAEC",
/* pixels */
"                                                                                                                                ",
"                                                                                                                                ",
"                                                                                                                                ",
"                                |.                                                                                              ",
"                              8.. o.                                                                                            ",
"                              8.. ]                                                                                             ",
"                          7.7.r.a.y.4.5.8X  9X5.9.7.7.7.7.7.7.7.7.7.7.7.7.7.7.7.7.4.                                            ",
"                          . . y.yXR.. . |.  !.. . . . . . . . . . . . . . . . . . . oX                                          ",
"                    eX|.!...' a.9Xs.' ` a.OXa.`  .o.o.{ X. . .{  . . . . . . .....{ s.|..X                                      ",
"                    y.. M OX9X{.R.|.|.|.] . ` |.].}.{.}.oXOXOXOXOXOXOXOXOXXXoXoX3XyX` . 7.                                      ",
"                    t.. U OXoXOX(.].~.|.] . ` (.!.!.[.}.}.XX|.|.XXXXXXXXXXXXXXOX9X8X_ . 7.                                      ",
"                5.W 7.R.R.R.|.!.}.f.E W e.s.s.!.!.|.}.}.}.XX|.}.XXXXXXXX|.XX|.|.oXXX].].a.E  .eX                                ",
"                C . 7.eXoXOX!.~.|.s.. O y.|.|.!.(.|.XXXX|. X|.|.{. XOX X`.|.|.|.`. X9XeXU.. . 0X                                ",
"                E . 7.9XOX~.~.R.y.8.' ] a.|.~.(.W.|.|.`.*X*X`.|.*X1X*X=X=X=X*X*X@X1X3XyXs.. B 0X                                ",
"                Y . 7.9X|.|.|.X.. I R.!.~.!.{.].].].(.*X-X-X`.XX=X5X-X-X:X;X;X<X:X,X3XtXU.. g                                   ",
"                R . 9.0XOX!.|.5.. E R.a.!.|.!.~.].]._.@X:XI.`.}.-X;XL.L.L.L.L.F.F.K.4X0Xa.. k wX                                ",
"                E . 9.oXOX!.|.3.. R m.c.!.}.].].W.=X;XL.;X&X XXX=X<XL.F.;XJ.J.%XF.K.8XrXp.. k qX                                ",
"                k . 4.yX9X|.!.4.. W R.c.~.!.!.(.).&XK.S.;X<X/. XI.:XJ.P.-XI.I.5XL.P.9XrXp.X c eX                                ",
"                y.r.8.8.r.!.!.2.. E M.U.!.!.).*XV.-X:XJ.L.-X&X$XH.%XF.;X>XC.l.C.L.K.6X0Xp.. h qX                                ",
"                    f.. k !.oX3.. W R.U.Q.(.@X-X;XL.L.L.J.K.:X-X,X>XF.%XD.h.=.,.-X:X6XuXs.. k eX                                ",
"                    s.. I a.!...X W M.s.Q.!.@X-XL.F.L.;XP.L.L.F.K.F.F.:X:Xh.*.<.P.P.2X7Xd.X x eX                                ",
"                    y.. M k k , . R c.s.Q.!.@XK.F.L.F.S.-XL.F.;XK.;XL.K.L.h.*.,.L.L.&X,Xz.. w qX                                ",
"                    a.. . O . . . W c.N.!.!.@X;XL.;X,X,X<X,X;XF.;X>XP.F.L.h.;.l.J.K.;X:Xz.. w                                   ",
"                    |.s.T.a.!.X.X Q B.N.!.!./.;X;XS.:Xv.#.&.H.:XL.S.I.:XD.&.~ &.j.k.S.P.z.. w wX                                ",
"                              r.. / A.G.).W.V.:X;XS.:Xw.. . #X;XD.L.L.K.7X#.. D >.:.Z.P.g.. q eX                                ",
"                              r.. / G.G.).+X/.;XD.P.:Xz.P [ #X;X:X-X:X-X&Xq.G +.-.-.C.:Xz.. q 0X                                ",
"                              r.. / S.G.(.[.).L.L.A.P.#XM.!.*XH.*X).*X=X*X<X:XG.,.-.C.:Xz.. z wX                                ",
"                              9.. ~ G.G.).^./.:X;XG #X$X(.!. X.XOXoX1X X{.&X:XD.:.:.Z.:Xx.. c wX                                ",
"                              y.. Q E.B.A.A.K.;X;XA.@ @.Q ' {  .{ o.{ ..] c.6.. =.>.Z.P.z.O x eX                                ",
"                              9.. ( T.m.#X;X;X;X<XB./.6.. . . . . O O . . ; @.h =.=.C.P.z.. h eX                                ",
"                      !.|.|.oX4.. E T.m.@X-X#X#X@XW. X0.^ { { ] { { { ../ U 1X*Xj.j.#X>Xz.. x eX                                ",
"                    y.. . . . . . ! Y.m.~._.N.N._.~.~.+X+XW.^.%.%.%.n.`..X2X`.V..XV.oX4Xi.. c rX                                ",
"                    f.. b ; , , . E s.~.W.E.(.~.W.!.E.E.E.W.E.W.%.n.`. X X X X1X1X X)..Xa.. 0                                   ",
"                    a.. C ] [ V . 9 U U I U { W.Y.E.W.E.W.E.E.N.).4X`.`.`. X X1X).).@.Q I - C eX                                ",
"                    r.o . [ 5.I . . . . . . ' {. X(.{.(. X!.'.(.`.2X2X2X6X3X3X1X3X6XS O . . . 9X                                ",
"                    ~.7.7.E Q M + + > o U U ) 8.8.9.0.9.8.9.8.9.w.w.w.w.u.u.t.t.w.u.7.8.t.7.8.                                  ",
"                          . . 3 z 7 . . ` 2.` . . . . . . . . . . . . . . . . . . . oX                                          ",
"                        9XI V v 8 d 4 O E  .R 1 0 , d y > > 3 < < , d y < j g 3 M . !.                                          ",
"                              7.O N ' [ P . g M M b b j $ > > > u u * = X b M C P b Y . 8.                                      ",
"                              u.. F ....Z . , M A H H B & * # # % & % % X B F P P U , . 9.                                      ",
"                          t.r. .I Y Y Y v y j , d j n a = > T R T ( T * & n n k k j v : / y.e.                                  ",
"                        9X. . R 5.` . . k C l . . X * * * n | 1.X.2.} e u s e e . . Z P h . O 8X                                ",
"                          ` W ( ] _ . o g C g . X * s e & p ( | ] | ( e s u s r . . v P Z , k                                   ",
"                              9.X j . . b v v . X X # e # # * & = * s # % u p * O . M S v . 9 0X                                ",
"                              7.o . @ . j C j . X = # % # % e * a r r % # e p > . . C L M . 9 6X                                ",
"                              oX!.f.. $ d j ; . X $ * t e * e u e u a e p e * = . . y b g X , tX                                ",
"                                  9X. d X # X X X > & * & * & * e t t * t % # # . . X X $ X f tX                                ",
"                                  OX. > $ t $ X . > y i p i p a a n i n i i > t . X * $ i . , 0X                                ",
"                                  |.. k $ ; o X . M C B b A H D H H H K P S K V X . $ $ d $ M                                   ",
"                                  |.. . . > $ . . m V V A B B M B F F F F Z F M . X o * X . . 0X                                ",
"                                    |.OX' . g o . m B m B A M M N S K S S G S Z O . j o 1.oXOX                                  ",
"                                        1.. . O . k M B F Z A v J P H H J J P J . ; . . 7.                                      ",
"                                        y.4.... @ h x x c c c c N S D D D D D M . . 4.4.s.                                      ",
"                                            oX. 3 6 6 8 7 7 7 5 2 5 5 5 5 5 5 2 0 . !.                                          ",
"                                            !.. 3 4 6 7 7 4 7 7 6 q 7 7 7 7 q 4 , . oX                                          ",
"                                            |.. y ; - + @ : 0 x h x d : - : : + , O |.                                          ",
"                                            OX. 0 1 1 o , 1 . . . . . ; 1 o , . , . oX                                          ",
"                                            |.. f , ; < o j r.t.e.t.7.. ; < < < g . |.                                          ",
"                                            |.. . . . O . k         9X. O O . . . . OX                                          ",
"                                            OX3 R I I U I `         OXU I U I Y E g oX                                          ",
"                                                                                                                                ",
"                                                                                                                                ",
"                                                                                                                                ",
"                                                                                                                                "
};
