/* XPM */
static char *_b17160fa9414ba781475bc49b052a96ig96D2824hObXRBv[] = {
/* columns rows colors chars-per-pixel */
"64 64 221 2 ",
"   c None",
".  c #020102",
"X  c #03030B",
"o  c #0A0B0B",
"O  c #070706",
"+  c #140A09",
"@  c #12110D",
"#  c #020214",
"$  c #0C0B14",
"%  c #030319",
"&  c #0B0B1C",
"*  c #070818",
"=  c #160D14",
"-  c #141313",
";  c #1B1314",
":  c #14141C",
">  c #1C1B1B",
",  c #191719",
"<  c #0E100F",
"1  c #33100F",
"2  c #241B1D",
"3  c #2B1717",
"4  c #3C1415",
"5  c #321B1B",
"6  c #341617",
"7  c #2F0F10",
"8  c #1E201F",
"9  c #25231D",
"0  c #32241E",
"q  c #34291A",
"w  c #0D0D23",
"e  c #0E0D2B",
"r  c #121324",
"t  c #1C1C23",
"y  c #14142A",
"u  c #1A1B2B",
"i  c #171927",
"p  c #191A32",
"a  c #10102A",
"s  c #201F26",
"d  c #1D2124",
"f  c #232323",
"g  c #25252C",
"h  c #2B2B2C",
"j  c #2B2726",
"k  c #352625",
"l  c #312926",
"z  c #382829",
"x  c #31322F",
"c  c #2C2C31",
"v  c #262736",
"b  c #332E34",
"n  c #323333",
"m  c #3C3436",
"M  c #35363A",
"N  c #3C363B",
"B  c #3B3B3B",
"V  c #383A37",
"C  c #2E3332",
"Z  c #443E3D",
"A  c #423337",
"S  c #3C423D",
"D  c #5F4D3F",
"F  c #3D3E42",
"G  c #363E40",
"H  c #413E43",
"J  c #3D4144",
"K  c #434444",
"L  c #4B4B4B",
"P  c #474647",
"I  c #4E504D",
"U  c #4B4D5C",
"Y  c #545555",
"T  c #5B5A5B",
"R  c #585757",
"E  c #645C5A",
"W  c #6C505C",
"Q  c #735E59",
"!  c #5B605A",
"~  c #676459",
"^  c #585B67",
"/  c #615F60",
"(  c #5F6263",
")  c #646464",
"_  c #6D6C6C",
"`  c #686868",
"'  c #736E6C",
"]  c #76736E",
"[  c #696A75",
"{  c #6D7175",
"}  c #747473",
"|  c #7B7C7B",
" . c #787774",
".. c #6C716A",
"X. c #855F38",
"o. c #91776A",
"O. c #827775",
"+. c #8F746D",
"@. c #A27C67",
"#. c #5ED660",
"$. c #75D375",
"%. c #B18E7C",
"&. c #F59A5D",
"*. c #F79867",
"=. c #FB9E72",
"-. c #EC9B64",
";. c #EFA36C",
":. c #F5A269",
">. c #FCAA7A",
",. c #FAB27F",
"<. c #7C7B82",
"1. c #7D8182",
"2. c #848384",
"3. c #8C8C8C",
"4. c #848589",
"5. c #9A8C88",
"6. c #959595",
"7. c #9B9A9A",
"8. c #999796",
"9. c #A49084",
"0. c #A29B9D",
"q. c #B0968B",
"w. c #A9A49E",
"e. c #9F9FA1",
"r. c #A2A2A2",
"t. c #ACA8A5",
"y. c #ABABAB",
"u. c #A9A4A0",
"i. c #BCADA8",
"p. c #B7B6AF",
"a. c #B4B4B4",
"s. c #BCBCBC",
"d. c #BEB8B2",
"f. c #AEB4B2",
"g. c #C8AC9B",
"h. c #FFB38E",
"j. c #EBAE94",
"k. c #FEB994",
"l. c #F5B291",
"z. c #C7ADA5",
"x. c #C6B1A6",
"c. c #C7BBB8",
"v. c #D5B4A6",
"b. c #F7BDA5",
"n. c #A1CB9C",
"m. c #B8C2BD",
"M. c #B2CCAA",
"N. c #C3C1BD",
"B. c #CAC7BC",
"V. c #D4C5BC",
"C. c #DDCCBD",
"Z. c #FDC5AB",
"A. c #F5CAA5",
"S. c #EBC9BA",
"D. c #F4CCB4",
"F. c #FCCAB5",
"G. c #FDCEBB",
"H. c #F1C3B7",
"J. c #EAD0BB",
"K. c #FDD4B5",
"L. c #F6D3BB",
"P. c #FDD3BC",
"I. c #FED9BC",
"U. c #F4D9BB",
"Y. c #BABEC2",
"T. c #C8BDC1",
"R. c #BBC1C2",
"E. c #C4C3C4",
"W. c #CBC5C3",
"Q. c #CDC9C4",
"!. c #C4CBCD",
"~. c #CCCBCB",
"^. c #C7C8C6",
"/. c #D4CCC6",
"(. c #DCCDC6",
"). c #D3CDCC",
"_. c #DACDCA",
"`. c #D1C1C1",
"'. c #DCD3CD",
"]. c #D6D3CE",
"[. c #CBCED2",
"{. c #C3CED2",
"}. c #D6CFD0",
"|. c #CED2D3",
" X c #D4D4D4",
".X c #DCD4D2",
"XX c #DDDAD5",
"oX c #D4D5D9",
"OX c #DBDBDB",
"+X c #D7D8D8",
"@X c #C7D1C9",
"#X c #E2CEC4",
"$X c #EDCDC3",
"%X c #EACEC9",
"&X c #FDCEC5",
"*X c #EDD3C6",
"=X c #E5D3CA",
"-X c #E9D3C9",
";X c #F4D5C4",
":X c #FDD4C2",
">X c #FDDAC3",
",X c #FCD3C9",
"<X c #F5DACA",
"1X c #F6D8C9",
"2X c #E2D6D3",
"3X c #E5DBD5",
"4X c #E3DCD9",
"5X c #EADCD3",
"6X c #F3D6D0",
"7X c #E8E2DE",
"8X c #F8E3D5",
"9X c #DEDEE0",
"0X c #E4E4E3",
"qX c #EAEAE7",
"wX c #E5E7EA",
"eX c #EBE6EC",
"rX c #E5EAEC",
"tX c #EBEAED",
"yX c #E7E6E4",
"uX c #F1F1F1",
"iX c #EDEAEC",
/* pixels */
"                                                                                                                                ",
"                                                                                                                                ",
"                                                                                                                                ",
"                                +X                                                                                              ",
"                              7.. _                                                                                             ",
"                              7.. `                                                                                             ",
"                          6.6.r.a.y.3.4.OX  7X4.6.6.6.6.6.6.6.6.6.6.6.6.6.6.6.6.6.3.                                            ",
"                          . . y.uXE.. . +X  ~.. . . . . . . . . . . . . . . . . . . OX                                          ",
"                    rX X~.| _ a.0Xm._ ~ a.OXa.) } ...... .} } ] } } } } } } } | O.} s.+XXX                                      ",
"                    y.. n +X0X}.E.|. X X` . ) +X|.}.}. X+X+X+X+X+X+X+X+X+X+X9X+X0XtX) . 6.                                      ",
"                    t.. P +XOX+X~.}.E. X` . ) [.~.~.{.{.oXoX X XoXoXoXoXoX|.oX+X0X9X( . 6.                                      ",
"                4.R 6.E.E.E. X~. Xf.T R e.s.s.~.Q. XoX|.oX|. X XoXoXoX X XoX X XXXoX[.[.a.T } wX                                ",
"                B . 6.qXOX+X~.^. Xs.. O t.+X+X~.).+XoX X X.X X|..X.X.X.X'.]. X.X'. X0XtXY.O . rX                                ",
"                T . 6.0X+X^.^.E.y.8._ ` a. XE.[.~.[.}..X=X=X'. X'.2X2X-X=X=X=X=X%X=X4XtXs.. V qX                                ",
"                I . 6.0X+X X X .X I E.~.E.~.}.~.[.[.).=X;X;X'.oX6X*X1X;X>X:X:X1X>X1X3XyXY.. f                                   ",
"                Y . 8.yX+X^.+X4.. T E.a.~. X~.~.[.[.`.#XU.>X'.|.$X:XI.G.P.P.:XG.P.;X5XqXf.. h eX                                ",
"                T . 8.OX+X~.oX1.X R N.m.Q.|.[.[.~.-XP.G.:X*X.XoX=X1XP.G.:XP.K.&XP.K.9XtXp.. j wX                                ",
"                h . 3.uX0X XR.1.. R E.s.~.Q.Q.)._.*XL.D.:X<X(..XU.>XK.P.;XU.U.6XP.P.0XtXp.X z rX                                ",
"                f.0.7.7.r.~.~.%.. T E.Y.!.~._.=XC.;XI.P.I.;X*X-XJ.&XG.:X,XZ.k.b.P.U.0XtXp.. j wX                                ",
"                    f.. h ~.+X4.. R N.R.!.).=X;X:XP.P.P.D.P.>X;X<X&XG.:XF.h.&.>.:X;X7XiXd.X h rX                                ",
"                    a.. L a.~.| X R N.R.!.~.#X:X:XG.P.>XP.P.P.G.U.&XG.U.>Xh.-.,.P.:X5X8Xd.X l rX                                ",
"                    f.. n h h > . Y c.s.!.~.#XL.G.P.F.D.;XP.G.:XL.:XI.P.P.h.&.>.U.I.*X<Xz.. q wX                                ",
"                    a.. . . . . . R B.c.~.~.(.:XP.P.>X8X1X<X>XG.:X,X:XG.>Xk.-.l.K.P.:X>Xz.. q                                   ",
"                     Xs.R.s.~.} X E `.V.~.Q.(.:X:XL.>Xv.o.%.J.>XF.K.U.:XI.%.D %.j.k.D.I.z.. q eX                                ",
"                              r.. ~ S.H.(.^.C.>X:XD.>Xq.. . $XP.G.K.P.L.8X+.O A ;.;.A.I.g.. 0 rX                                ",
"                              r.. ~ H.H._.@X(.:XF.I.>Xx.D ' %X$X;X1X:X1X*X9.D o.=.=.Z.,Xz.O 0 eX                                ",
"                              r.. ~ D.H.}.{.(.P.:XD.>X-XE.).=XJ.=X_.=X=X#X1X:XH.:.=.Z.>Xz.O 0 eX                                ",
"                              8.. Q H.H.(.~.#X;X&Xv.;X%X~.~.XX'.XXOX2X.X.X-X>XF.:.;.A.>Xx.. k eX                                ",
"                              y.. E W.V.S.S.L.>X:XS.%.] / _ ]  .] .. .| ` c.5.G.:.:.A.>Xz.. l rX                                ",
"                              8.. T R.m.*XP.:X:X1XV.(.9.. . . . O O O . . - 9.g.*.*.Z.I.z.O l rX                                ",
"                      ~.+X XOX3.. T R.m.(.&X$X$X#X/.].0.! ..] ` ] ] ] O.E K 2X=Xj.j.S.1Xz.. l rX                                ",
"                    y.. . . . . X W c.R.^.W.B.B.`.^.^.@X@X$.#.#.#.#.#.#.OX3X'.#XXXC.OX2Xi.O z tX                                ",
"                    f.. x = > > . R s.E.Q.N.}.Q.Q./.W.B.`.M.$.#.#.#.#.'..X.X2X.X.X2X_.4Xa.. f                                   ",
"                    a.. B _ _ N X 8 L P L K  .`.T.W.^.W.Q.W.n.#.#.#.].'.'..X.X2X_._.O.T L @ V rX                                ",
"                    r.o . _ 2.L . . . . . . ` '. X}.}.). X).].#.#.5X3X5X5X4X4X4X3X7XZ O . . . 0X                                ",
"                    ^.8.6.T E n + @ - < J L ^ 0.0.8.0.8.7.8.0.6.w.w.w.w.t.u.t.t.w.t.6.7.t.6.7.                                  ",
"                          . . 2 5 2 O . ` 1.` . . . . . . . O . . . . . . . . . . . OX                                          ",
"                        0XL B x 7 5 3 O T { Y o > 9 > t & , 2 , , > s t : j f > x . ~.                                          ",
"                              8.O m _ _ K . f n c c C g $ : r : i i & * X c M V K c I . 8.                                      ",
"                              r.. S | | N O , x x F F G * & # # % % % % X M B K K P > . 7.                                      ",
"                          t.r.} L I I I h t g , s g v p * : U Y U ^ U w % v v h h g x ; ~ y.e.                                  ",
"                        0X. . Y 4.` . . C B h . . # & & & v { <. .1.[ w y y w w . . V K f . O 9X                                ",
"                          ) Y ( ` ( . o f B j . X $ r a * i ^ { ` { ^ w a y a e X . x D V 9 h                                   ",
"                              8.. g . . C h x . X X % % # # & * % & a # % y i & O . C M C . > qX                                ",
"                              6.o . @ . g B g . o # # % # % w & p e e % # & i : . . B J n . 8 7X                                ",
"                              OXQ.f.. $ s g - . . $ w r w & w y w u u w u w & * . . t c s X > yX                                ",
"                                  yX. t X # X X X & * & * & * & & r w & a % # % . . X X $ X 8 yX                                ",
"                                  oX. , * r $ X O : u u i u i p p v p v u u : : . X $ & u . 8 qX                                ",
"                                  +X. g $ - $ X . n N M c C B A F F F H F Z H V . O $ $ s $ n                                   ",
"                                  +X. . . , $ . . x F N M M M n M S B S S S S n . X o & X . . qX                                ",
"                                    .X+X_ . f o . b b b C C n n m D H Z Z D S m O . g o <.OX+X                                  ",
"                                        <.. . . . h n N S S C x G G F G G G J B . - . . 6.                                      ",
"                                        y.3.| . < j l k z z z z b H A A A A A m . . 3.3.s.                                      ",
"                                            +X. 2 5 5 7 6 6 4 4 7 4 4 4 4 4 4 1 f . ~.                                          ",
"                                            ~.. 2 3 3 6 5 7 6 3 5 k 6 6 6 5 5 3 8 . OX                                          ",
"                                             X. t - ; + @ ; f l j l 2 ; = ; ; @ , O ].                                          ",
"                                            +X. 8 < < < > o . . . . . - < o , O > . +X                                          ",
"                                             X. 8 , ; - o h e.t.e.t.6.. - , , , f .  X                                          ",
"                                             X. . . . o . h         0X. O O . . . . +X                                          ",
"                                            +X9 Y L P P L `         +XP L P L I T f OX                                          ",
"                                                                                                                                ",
"                                                                                                                                ",
"                                                                                                                                ",
"                                                                                                                                "
};
