/* XPM */
static char *cbe4cb0457bc4295ac8bcc8e393fc353T8bbAkJ18Vc7KJez[] = {
/* columns rows colors chars-per-pixel */
"64 64 217 2 ",
"   c None",
".  c black",
"X  c #0E0E0E",
"o  c gray8",
"O  c #202020",
"+  c #282828",
"@  c #2F2F2F",
"#  c #393939",
"$  c gray23",
"%  c #37474F",
"&  c #3F4D54",
"*  c gray25",
"=  c #4B494A",
"-  c #484B4D",
";  c #5C4A45",
":  c #584E4B",
">  c #475359",
",  c #48565C",
"<  c gray35",
"1  c #5D5A5D",
"2  c #604B45",
"3  c #6D4C41",
"4  c #665149",
"5  c #775547",
"6  c #785447",
"7  c #785547",
"8  c #795547",
"9  c #705349",
"0  c #71564C",
"q  c #795548",
"w  c #795649",
"e  c #79574A",
"r  c #7A594B",
"t  c #7A594C",
"y  c #7B594C",
"u  c #7A5A4E",
"i  c #7B5B4E",
"p  c #7A5D52",
"a  c #7C5D51",
"s  c #525B60",
"d  c #565E62",
"f  c #5A5C61",
"g  c #606060",
"h  c #696C6E",
"j  c #766563",
"k  c #7D6B69",
"l  c gray46",
"z  c #777777",
"x  c #7E7273",
"c  c #7F7273",
"v  c #7D7374",
"b  c #7E7274",
"n  c #7B7676",
"m  c #7D7577",
"M  c #7C7777",
"N  c #777879",
"B  c #71787C",
"V  c #846B62",
"C  c #836C63",
"Z  c #816E68",
"A  c #8B7B76",
"S  c #A47C77",
"D  c #90847F",
"F  c #637F92",
"G  c #7C8183",
"H  c #7C878D",
"J  c #638094",
"K  c #778F9C",
"L  c #79919D",
"P  c #7C919D",
"I  c #5E8CA4",
"U  c #6388A4",
"Y  c #7F96A2",
"T  c #808080",
"R  c #81818A",
"E  c #81818B",
"W  c #828688",
"Q  c #82828C",
"!  c #82858F",
"~  c gray54",
"^  c #838C9C",
"/  c #869299",
"(  c #9D9D9D",
")  c gray62",
"_  c #9F9F9F",
"`  c #8B9EA7",
"'  c #9B9FA1",
"]  c #819BB3",
"[  c #8FA3AD",
"{  c #8FA4AE",
"}  c #8FA4AF",
"|  c #96A1A7",
" . c #9BA0A2",
".. c #9AA0A3",
"X. c #92A3AB",
"o. c #93A3AB",
"O. c #95A2A8",
"+. c #91A3AC",
"@. c #92A3AC",
"#. c #90A4AE",
"$. c #8FA6B3",
"%. c #87A0BA",
"&. c #8FACBE",
"*. c #90A4B0",
"=. c #90A5B1",
"-. c #96A7B0",
";. c #90A6B4",
":. c #90A7B6",
">. c #90A8B6",
",. c #90A8B7",
"<. c #91A8B7",
"1. c #90ABBC",
"2. c #9DAFBF",
"3. c #A0A0A0",
"4. c gray64",
"5. c #A5A5A5",
"6. c #A7A7A7",
"7. c #AEA8AA",
"8. c #ACACAC",
"9. c #AEAEAE",
"0. c #A1AFBE",
"q. c #A7B1B6",
"w. c gray71",
"e. c #B6B6B6",
"r. c #B7B7B7",
"t. c #BAB4BD",
"y. c gray72",
"u. c #BBBBBB",
"i. c gray75",
"p. c #8FAEC2",
"a. c #8AABCA",
"s. c #8AACCC",
"d. c #8AACCD",
"f. c #90ADC2",
"g. c #90AEC3",
"h. c #90B0C7",
"j. c #98B1C6",
"k. c #95B4CD",
"l. c #8FB7D4",
"z. c #8BB5DA",
"x. c #80BEDC",
"c. c #8DB9DF",
"v. c #90B6D4",
"b. c #A6ADC3",
"n. c #ABB7C9",
"m. c #BAB6C0",
"M. c #ACBFD8",
"N. c #8DBBE3",
"B. c #8FBDE0",
"V. c #93BEE3",
"C. c #92BFE4",
"Z. c #C1B9C5",
"A. c #C7BFCD",
"S. c #8FC1E8",
"D. c #8FC1E9",
"F. c #8FC2EB",
"G. c #8FC2EC",
"H. c #8EC2ED",
"J. c #8FC3ED",
"K. c #96C5ED",
"L. c #8FC5F0",
"P. c #8FC7F5",
"I. c #8FC7F6",
"U. c #8FC8F7",
"Y. c #8ECAF7",
"T. c #8FC9F8",
"R. c #8FC9F9",
"E. c #8DCAF9",
"W. c #8ECAF9",
"Q. c #8ECBF9",
"!. c #8ACDF9",
"~. c #88CFFA",
"^. c #8CCCF9",
"/. c #90C8F6",
"(. c #9CC9F5",
"). c #90CAF9",
"_. c #82D3FA",
"`. c #84D1FA",
"'. c #81D4FA",
"]. c #A4C8EE",
"[. c #ABCAEF",
"{. c #ACCBEF",
"}. c #A9CAF0",
"|. c #AACAF0",
" X c gray76",
".X c #C8C8C8",
"XX c #CBCBCB",
"oX c gray80",
"OX c gray81",
"+X c #D5C3CE",
"@X c #DFCBDD",
"#X c #DECBDE",
"$X c LightGray",
"%X c #D8D8D8",
"&X c gray86",
"*X c #DFDFDF",
"=X c #E6C2C6",
"-X c #E3C4CB",
";X c #F1C8CF",
":X c #E2CBDC",
">X c #FDCCD3",
",X c #FFCDD2",
"<X c #FBCCD4",
"1X c #C7CBE6",
"2X c #D5CCE1",
"3X c #E1E1E1",
"4X c #E6E6E6",
"5X c #E7E7E7",
"6X c gray91",
"7X c #EAEAEA",
"8X c gray93",
"9X c #EEEEEE",
"0X c #EFEFEF",
"qX c gray95",
"wX c #F3F3F3",
"eX c gray98",
"rX c white",
/* pixels */
"                                                                                                                                ",
"                                                                                                                                ",
"                                                                                                                                ",
"                                                                                                                                ",
"                                                                                                                                ",
"                                                                                                                                ",
"                                                    3.3.3.3.)                                                                   ",
"                                                3.y.8.rXrXrXe.3.)                                                               ",
"                                              ) $XrX8X&XrXrXeX7X6.                                                              ",
"                                              ) rXrXrX7X5XrXqXOX7X)                                                             ",
"                                              ) rXrXrXqX3X&X X5XeXy.                                                            ",
"                                                rX5XqX. i.rXrX* * rX)                                                           ",
"                                              ) rXqX5Xi.*X*XOXOXy.OX                                                            ",
"                                              )   5XOXrX) i.T *X6.8.                                                            ",
"                                              ) ) wXOX*XqXrXrXrX)                                                               ",
"                                                @ @ o o g ) OX* )                                                               ",
"                                                  o # . . . . < )                                                               ",
"                                                    e.1 . . . <                                                                 ",
"                                                      e.$XT .X_                                                                 ",
"                                          K             y. X                                                                    ",
"                                    #.#.Y P )     ) ) ) ) )                                                                     ",
"                            #.#.#.#.-.` L ) ) ) ) ) ) ) ) ) )                                                                   ",
"                      #.#.#.#.#.#.#.q.                      Z 3           3 3                                                   ",
"                      #.G l l       l l l l l l           r C V 3       2 2 2 ;                                                 ",
"                      / N l l l l l l l l h > s l d 4 7 7 Q C.V.3 3 = % % % % % % % % % % % % % % % % % % % % % % % % % % % % % ",
"                          l l l l l d % % % % & d - 9 q a.R.R.R.Y.] 3 1 J J U I f : : % % % % % % % % % % % % % % % % % % %     ",
"                                        B , W W W 0 q R H.)./.v.p.H.S j 1.l./.`.x 7 7                                           ",
"                                                  r q d././.).c.=.l.Z.0.g.R.R.~.Q.7 7                                           ",
"                                    )             q Z (.|.|.K.[.M.n.$.X.>.].F.{.2X5 7                                           ",
"                                      ) )       ) t Q :X>X<Xj.;X,X+X[ [ { m.&.,X,X5 7                                           ",
"                                        ) ) ) )     q 2X:X:Xf.,.:.=.=.X.>.h.B.R.R.5 7                                           ",
"                                    )               t R.R.R.I.C.F.g.t.7.k.R.).!.'.7 7                                           ",
"                                    8.6.          D i c.R.R.).L.>.$.A.=X..R.R.'.M 7 7                                           ",
"                                    8X.X) ) ) ) ) ) i ^ I.R.R.l.F.F.1X-X$.j.!.x.p 7 7                                           ",
"                                  rX          ) )   A a s.I.R.!.!.Y.R.1XL.).^.H 7 7 7                                           ",
"                                            ) )       y k x M b n z.R.1X).).] 5 7 7 7                                           ",
"                                            ) ) )         7 7 7 7 ! b.2X).N.b q 7 7                                             ",
"                                                )             7 7 7 7 7 q q 7 q 7                                               ",
"                                                ) ) )                                                                           ",
"                                        ) ) ) ) ) ) )                                                                           ",
"                                      3.) ) ) ) |                                                                               ",
"                                    + # l 3...O.#.)                                                                             ",
"                                  ) ~ < o ..@.O. .) )                                                                           ",
"                                  ) ) )           ) ) )                                                                         ",
"                                  ) )             ) ) )                                                                         ",
"                                ) ) )               ) ) )                                                                       ",
"                              ) ) )                   ) ) )                                                                     ",
"                            ) ) ) )                   ) ) )                                                                     ",
"                          ) ) ) )                       ) ) )                                                                   ",
"                  ) ) ) ) ) ) )                           ) )                                                                   ",
"                  ) ) ) ) )                               ) ) )                                                                 ",
"                  ) )                                       ) )                                                                 ",
"                    ) )                                     ) ) )                                                               ",
"                        )                                   ) ) )                                                               ",
"                                                          ) ) ) )                                                               ",
"                                                          ) ) ) )                                                               ",
"                                                          ) ) )                                                                 ",
"                                                          ) ) )                                                                 ",
"                                                        ) ) )                                                                   ",
"                                                      ) ) )                                                                     ",
"                                                      ) ) ) ) ) )                                                               ",
"                                                      ) ) ) ) ) )                                                               ",
"                                                                                                                                ",
"                                                                                                                                "
};
