/* XPM */
static char *_036f30e1502484f921e48976c13e42budpw1DfpFczoiMtx[] = {
/* columns rows colors chars-per-pixel */
"64 64 254 2 ",
"   c None",
".  c black",
"X  c #0E0E0E",
"o  c gray8",
"O  c #202020",
"+  c #2F2F2F",
"@  c #393939",
"#  c #37474F",
"$  c #3B484F",
"%  c gray25",
"&  c #464A4D",
"*  c #474A4D",
"=  c #524E4D",
"-  c #5C4F4A",
";  c #445259",
":  c #49575D",
">  c gray35",
",  c #665149",
"<  c #6B5249",
"1  c #775547",
"2  c #785447",
"3  c #785547",
"4  c #795547",
"5  c #795548",
"6  c #795649",
"7  c #79574A",
"8  c #7A584B",
"9  c #7A594B",
"0  c #79584C",
"q  c #7A594C",
"w  c #7B594C",
"e  c #7A5A4E",
"r  c #7B5B4E",
"t  c #7B5D51",
"y  c #7A5D52",
"u  c #7C5D51",
"i  c #515D63",
"p  c #565E62",
"a  c #566167",
"s  c #596469",
"d  c #4C6577",
"f  c #4D6779",
"g  c #4D687A",
"h  c #606060",
"j  c #63696C",
"k  c #7C6864",
"l  c #7D6B69",
"z  c #6B6F71",
"x  c #6D6F70",
"c  c #677074",
"v  c #687074",
"b  c #697175",
"n  c #6A7276",
"m  c #7E7273",
"M  c #7F7273",
"N  c #7D7374",
"B  c #7E7274",
"V  c #7B7676",
"C  c #7D7577",
"Z  c #7C7777",
"A  c #846B62",
"S  c #836C63",
"D  c #897871",
"F  c #887B77",
"G  c #8B7B76",
"H  c #90847F",
"J  c #7E8386",
"K  c #7C878D",
"L  c #778F9C",
"P  c #78909C",
"I  c #79909C",
"U  c #79919D",
"Y  c #7A919C",
"T  c #7C919D",
"R  c #808080",
"E  c #808587",
"W  c gray53",
"Q  c #81818A",
"!  c #81818B",
"~  c #82828C",
"^  c #82858F",
"/  c #84888A",
"(  c #8B8D8E",
")  c #918580",
"_  c #928884",
"`  c #838C9C",
"'  c #81939D",
"]  c #82949C",
"[  c #86969D",
"{  c #8B979D",
"}  c #929494",
"|  c #90999D",
" . c #949A9D",
".. c #959A9D",
"X. c #979B9D",
"o. c #9A9C9E",
"O. c #9D9D9D",
"+. c #9D9D9E",
"@. c #9D9E9E",
"#. c gray62",
"$. c #9F9F9F",
"%. c #9B9EA0",
"&. c #9C9EA0",
"*. c #8FA3AD",
"=. c #8FA4AE",
"-. c #8FA4AF",
";. c #95A0A5",
":. c #95A2A7",
">. c #9AA0A3",
",. c #98A0A4",
"<. c #91A2AB",
"1. c #92A3AB",
"2. c #94A1A8",
"3. c #94A2AA",
"4. c #95A3AA",
"5. c #90A3AC",
"6. c #91A3AC",
"7. c #8FA6B3",
"8. c #87A0BA",
"9. c #8FACBE",
"0. c #90A4B0",
"q. c #90A5B1",
"w. c #90A6B4",
"e. c #90A7B6",
"r. c #90A8B6",
"t. c #90A8B7",
"y. c #91A8B7",
"u. c #96ADB7",
"i. c #9FABB1",
"p. c #90ABBC",
"a. c #9DAFBF",
"s. c #A0A0A0",
"d. c gray64",
"f. c #A5A5A5",
"g. c #A7A7A7",
"h. c #AAAAAA",
"j. c gray67",
"k. c #AEA8AA",
"l. c #ACACAC",
"z. c #ACAEAF",
"x. c #AEAEAE",
"c. c #A1ACB1",
"v. c #A7AEB2",
"b. c #A1AFBE",
"n. c #A8B0B4",
"m. c #ACB6BB",
"M. c #B4B4B4",
"N. c gray71",
"B. c #B6B6B6",
"V. c #B7B7B7",
"C. c #BAB4BD",
"Z. c gray72",
"A. c #BBBBBB",
"S. c gray75",
"D. c #8FAEC2",
"F. c #89A9C8",
"G. c #8AABCA",
"H. c #8AACCC",
"J. c #8AACCD",
"K. c #90ADC2",
"L. c #90AEC3",
"P. c #90B0C7",
"I. c #98B1C6",
"U. c #95B4CD",
"Y. c #8FB7D4",
"T. c #8BB5DA",
"R. c #80BEDC",
"E. c #8DB9DF",
"W. c #90B6D4",
"Q. c #A6ADC3",
"!. c #AEBAC0",
"~. c #ABB7C9",
"^. c #BDB2C3",
"/. c #BAB6C0",
"(. c #B0BEC5",
"). c #A1BAD3",
"_. c #ACBFD8",
"`. c #8DBBE3",
"'. c #8FBDE0",
"]. c #93BEE3",
"[. c #92BFE4",
"{. c #C1B9C5",
"}. c #C7BFCD",
"|. c #8FC0E7",
" X c #8FC1E8",
".X c #8FC1E9",
"XX c #8FC2EB",
"oX c #8EC4E9",
"OX c #8FC2EC",
"+X c #8EC2ED",
"@X c #8FC3ED",
"#X c #96C5ED",
"$X c #8FC5F0",
"%X c #8FC7F5",
"&X c #8FC7F6",
"*X c #8FC8F7",
"=X c #8ECAF7",
"-X c #8FC9F8",
";X c #8FC9F9",
":X c #8DCAF8",
">X c #8DCAF9",
",X c #8ECAF9",
"<X c #8ECBF9",
"1X c #8ACDF9",
"2X c #88CFFA",
"3X c #8CCCF9",
"4X c #90C8F6",
"5X c #9CC9F5",
"6X c #90CAF9",
"7X c #82D3FA",
"8X c #84D1FA",
"9X c #81D4FA",
"0X c #ABC4E3",
"qX c #A4C8EE",
"wX c #ABCAEF",
"eX c #ACCBEF",
"rX c #A9CAF0",
"tX c #AACAF0",
"yX c gray76",
"uX c #C8C8C8",
"iX c #CBCBCB",
"pX c gray80",
"aX c gray81",
"sX c #D5C3CE",
"dX c #DFCBDD",
"fX c #DECBDE",
"gX c LightGray",
"hX c #D8D8D8",
"jX c gray86",
"kX c #DFDFDF",
"lX c #E6C2C6",
"zX c #E3C4CB",
"xX c #F1C8CF",
"cX c #E2CBDC",
"vX c #FCCCD3",
"bX c #FDCCD3",
"nX c #FFCCD2",
"mX c #FFCDD2",
"MX c #FBCCD4",
"NX c #C5CBE6",
"BX c #C7CBE6",
"VX c #D5CCE1",
"CX c #E1E1E1",
"ZX c #E6E6E6",
"AX c #E7E7E7",
"SX c gray91",
"DX c #EAEAEA",
"FX c gray93",
"GX c #EEEEEE",
"HX c #EFEFEF",
"JX c gray95",
"KX c #F3F3F3",
"LX c gray98",
"PX c white",
/* pixels */
"                                                                                                                                ",
"                                                                                                                                ",
"                                                                                                                                ",
"                                                                                                                                ",
"                                                                                                                                ",
"                                                                                                                                ",
"                                                                  #.s.s.s.#.                                                    ",
"                                                              #.s.N.PXPXPXl.A.s.                                                ",
"                                                              g.FXLXPXPXkXSXPXjX#.                                              ",
"                                                            #.ZXaXKXPXZXZXPXPXPXo.                                              ",
"                                                            A.LXSXyXjXCXKXPXPXPX#.                                              ",
"                                                          #.PX% % PXPXA.. KXZXPX                                                ",
"                                                            iXA.aXaXCXkXA.SXKXPX#.                                              ",
"                                                            l.g.kXR A.#.PXaXSX  #.                                              ",
"                                                              #.PXPXPXKXkXgXKX#.#.                                              ",
"                                                              #.% aX#.h o o + +                                                 ",
"                                                              #.> . . . . @ o                                                   ",
"                                                                > . . . h N.                                                    ",
"                                                                >.iXZ gXN.                      #.#.#.#.#.                      ",
"                                                                    yXA.            L   o.#.#.#.#.#.#.n.m.#.                    ",
"                                                                    #.#.#.#.#.    #.T L { #.#.j.l.v.v.!.(.#.#.                  ",
"                                                            _     #.#.#.#.#.#.#.#.#.#.U 4.M.j.j.c.c.i.:./ / / J                 ",
"                                # # # # # # # # # # # # # # u 0   D ) b s # a b b b : # ( W z p p p i ; # # # # # #             ",
"                    # # # # # # # # # # # $ * * * d f g ^.).u.F S S 0 = * # # # # # # # z j # $ # # # # # # # # # # #           ",
"        # # # # # # # # # # #             < 3 k F.>X6X6XcXNX9XoX].].~ 6 1 , -         J }                                       ",
"                                          3 3 m 1X6X[.[.tXvX>X=X=X6X6XF.6 6           #.                                        ",
"                                          3 3 m 8X6XT.9.0XmXOXD.W.*X>XOXQ 6 0 #.#.#.#.#.                                        ",
"                                          3 3 <X1X6X>XD.b.{.Y.0.].=X&X&XJ.6 6                                                   ",
"                                          3 3 VXtXOXqXr.5.0.~._.wX#XtXtX5Xl 6             #.                                    ",
"                                          3 1 mXmX9./.=.*.=.sXmXxXI.bXbXcXQ q #.      #.#.                                      ",
"                                          3 3 >X>X].P.e.1.=.e.t.e.K.cXcXfX6     #.#.#.#.                                        ",
"                                          3 3 9X<X>X=XU.k.C.K. X[.%X>X6X>Xq               #.                                    ",
"                                          1 3 C 8X>X>X%.lX}.7.7.$X;X;X;XE.r H           s.M.                                    ",
"                                          3 3 y R.1XI.7.zXNX[.#XW.;X>X%X` r #.#.#.#.#.#.iXFX                                    ",
"                                          3 3 3 K 1X;X#XNX>X>X8X>X<X=XH.u F   #.#.          PX                                  ",
"                                          3 3 3 6 8.;X;XBX>XT.C N C m l w       #.#.                                            ",
"                                            3 3 6 B `.*XVXQ.^ 3 3 3 3       #.#.#.#.#.#.#.#.                                    ",
"                                              3 6 6 2 6 3 3 3 3 3       #.#.#.#.#.#.#.#.#.#.#.#.#.                              ",
"                                                                        #.#.#.#.#.#.O.O.o.O.#.#.#.%.                            ",
"                                                                      *.:.o.#.O.#.    #.#.#.#.%.1.1.                            ",
"                                                                      5.*.*.,.#.          #.#.1.5.&.                            ",
"                                                                      #.#.*.:.          O.O.#.%.#.&.                            ",
"                                                                    #.#.#.              O.O.o.#.#.                              ",
"                                                                  O.o.#.#.              O.O.O.#.                                ",
"                                                                #.#.#.#.              #.#.#.#.                                  ",
"                                                              #.o.#.#.                #.O.o.#.                                  ",
"                                                              ..O.O.                  #.O.O.                                    ",
"                                                            U ..O.#.                  #.O.O.                                    ",
"                                                            U | #.                  #.o.#.                                      ",
"                                                              ' #.#.                O.#.                                        ",
"                                                                #.#.#.              #.#.                                        ",
"                                                                  #.#.              #.#.                                        ",
"                                                                  #.#.                #.O.                                      ",
"                                                                  #.#.                  O.o.                                    ",
"                                                                  #.#.                  #.#.                                    ",
"                                                                  #.#.                    #.#.                                  ",
"                                                                #.#.#.                    #.O.O.                                ",
"                                                                  #.Y ] #.                  O.o.#.                              ",
"                                                                  #.[ ..#.                  #.#.#.                              ",
"                                                                #.#.#.#.                  #.#.#.#.                              ",
"                                                              #.#.#.                    #.#.#.                                  ",
"                                                                                                                                ",
"                                                                                                                                ",
"                                                                                                                                "
};
