/* XPM */
static char *ca3758f1630d412ca3881d0e04935da6F4LsDDNvrRGAVU0m[] = {
/* columns rows colors chars-per-pixel */
"64 64 227 2 ",
"   c #020100",
".  c #0C0502",
"X  c #0E0904",
"o  c #140C03",
"O  c #150D0A",
"+  c #120E0C",
"@  c #1E1205",
"#  c #1F1713",
"$  c #181A1C",
"%  c #20140C",
"&  c #231C11",
"*  c #251E15",
"=  c #27201C",
"-  c #28251F",
";  c #312214",
":  c #30271F",
">  c #35281E",
",  c #242423",
"<  c #2B292E",
"1  c #302925",
"2  c #322D28",
"3  c #3A3124",
"4  c #383127",
"5  c #38322E",
"6  c #353535",
"7  c #393631",
"8  c #442311",
"9  c #423325",
"0  c #4E3120",
"q  c #423931",
"w  c #4A3A30",
"e  c #413C38",
"r  c #423F39",
"t  c #553C32",
"y  c #643923",
"u  c #3A4039",
"i  c #4A4033",
"p  c #464438",
"a  c #4A4139",
"s  c #574433",
"d  c #514339",
"f  c #52493A",
"g  c #5F4F3A",
"h  c #664937",
"j  c #704731",
"k  c #7E5237",
"l  c #474644",
"z  c #4A4341",
"x  c #4C4741",
"c  c #524743",
"v  c #524B42",
"b  c #554F42",
"n  c #5A4C42",
"m  c #524C49",
"M  c #5B5042",
"N  c #55514B",
"B  c #5C524B",
"V  c #4E4D50",
"C  c #535251",
"Z  c #5B5451",
"A  c #5D5854",
"S  c #555658",
"D  c #5D5B5B",
"F  c #684C40",
"G  c #685443",
"H  c #63544B",
"J  c #635A4C",
"K  c #6C5B4B",
"L  c #785846",
"P  c #625551",
"I  c #645B53",
"U  c #6A5C53",
"Y  c #685F57",
"T  c #625D5B",
"R  c #775C52",
"E  c #5F605C",
"W  c #77624C",
"Q  c #6C6254",
"!  c #64615D",
"~  c #6A675B",
"^  c #6C645C",
"/  c #796556",
"(  c #756B55",
")  c #74645B",
"_  c #756A5C",
"`  c #5A5C62",
"'  c #635E62",
"]  c #656362",
"[  c #6B6563",
"{  c #6D6A64",
"}  c #68666C",
"|  c #6D6C6B",
" . c #756B64",
".. c #7C6D64",
"X. c #746D6B",
"o. c #7D7365",
"O. c #76736C",
"+. c #7B776B",
"@. c #7C746C",
"#. c #706D74",
"$. c #757474",
"%. c #7C7673",
"&. c #7E7B75",
"*. c #75777A",
"=. c #7A787C",
"-. c #7E7C7C",
";. c #875737",
":. c #895D51",
">. c #8A654B",
",. c #93684C",
"<. c #8A6955",
"1. c #856C5B",
"2. c #956B56",
"3. c #8A745C",
"4. c #97755B",
"5. c #846E66",
"6. c #887566",
"7. c #8D7464",
"8. c #84766C",
"9. c #857B6D",
"0. c #8D7C6D",
"q. c #927066",
"w. c #9B7763",
"e. c #967964",
"r. c #947E6C",
"t. c #9C7E6A",
"y. c #877A76",
"u. c #847C75",
"i. c #8C7D74",
"p. c #847E7B",
"a. c #987F73",
"s. c #7E837C",
"d. c #8C826D",
"f. c #99846C",
"g. c #878276",
"h. c #8D8276",
"j. c #86837E",
"k. c #8C847D",
"l. c #8C897E",
"z. c #958475",
"x. c #9C8475",
"c. c #9A8A77",
"v. c #94857C",
"b. c #9B867C",
"n. c #958A7E",
"m. c #9C8C7D",
"M. c #A7866B",
"N. c #A48C7D",
"B. c #AA8B78",
"V. c #A9937D",
"C. c #7E7E83",
"Z. c #797D85",
"A. c #857F83",
"S. c #7E8489",
"D. c #858484",
"F. c #8C8684",
"G. c #8D8B86",
"H. c #84858B",
"J. c #888989",
"K. c #8D8C8C",
"L. c #938684",
"P. c #9C8782",
"I. c #948C84",
"U. c #9C8D84",
"Y. c #948E8C",
"T. c #9D8F8C",
"R. c #8F9189",
"E. c #9D9386",
"W. c #96938E",
"Q. c #9A978B",
"!. c #9D948D",
"~. c #858A95",
"^. c #8D8E94",
"/. c #948F94",
"(. c #8F9294",
"). c #8E949C",
"_. c #959494",
"`. c #9B9694",
"'. c #9D9B95",
"]. c #96959B",
"[. c #98999C",
"{. c #9D9C9C",
"}. c gray62",
"|. c #A48F83",
" X c #A98F86",
".X c #A59385",
"XX c #A5958C",
"oX c #A49B8E",
"OX c #AB9889",
"+X c #AC9B8E",
"@X c #A49794",
"#X c #A59C95",
"$X c #AB9E95",
"%X c #A49E9B",
"&X c #AB9C98",
"*X c #9EA19C",
"=X c #A5A39D",
"-X c #ACA599",
";X c #ADA59D",
":X c #B5A698",
">X c #8F94A2",
",X c #979BA6",
"<X c #9D9DA3",
"1X c #A49FA9",
"2X c #9FA3A6",
"3X c #9EA4AD",
"4X c #A4A0A3",
"5X c #A5A4A4",
"6X c #ACA6A4",
"7X c #ADAAA5",
"8X c #A4A5AC",
"9X c #ABA7AB",
"0X c #A7AAAB",
"qX c #ACACAC",
"wX c #B4ABA5",
"eX c #BAACA7",
"rX c #B3AEAC",
"tX c #A6A9B5",
"yX c #ACADB3",
"uX c #ADB5B9",
"iX c #B0B0B1",
"pX c #B5B4B5",
"aX c #BCB6B4",
"sX c #B8B8BC",
"dX c #C3B6B0",
"fX c #B0BEC5",
"gX c #BABEC4",
/* pixels */
"O + o v ^ $.H.^.X.9 # Z ;X`.0X`.K. .w 2 5 2 -.7X6X`.5 O.'.G.W.H.! 9.n.g.k.x G I  .o.I v D D N r V D ] ] V v N z f i w 4 , , 2 * ",
"} ^.*.l q # q H i O   s.0X5X{.5XyXY.u.B * o . r X.l.7 O.%X_.5XD.o.9.Q.I.m.v o.r.f a  .D v  .F. .6 { 7 ! N B ! ! O.) J z 7 2 2 < ",
"Z.S.3XyX=.5 . @ O   , W.5X]._.J.].Y.W.u.A z q ; O 1 1 z ! { _.H.H.W.U.l.m.w v f i Q y.p.i.h.I.p.7 A ! T [ Y @.j.K.h...A C x x < ",
"#.Z.~.<X8X<X7 = Q * D `.{.tX).j.(.{._.F.+.z p.`.j.r C ; . & v I.,X_.l.W.0.9 & p y.F.@.u.L.0.8.u.! r G.I I u.u.Y.J.W.`.&.A N m 6 ",
"S.~.).>X].[.K.2 w Z G.&.G.0X,XH.0X8XH.Y.Q.D J.{.{.&.T m 1 & @ 9 Q W.k.0.0.d *./ p.{.u.L.$X6.8.u.! q O.^ v 8.+.K.^.H.F.O. .A { V ",
"~.S.~.=.^.yXsXs.. v U.9.'.uX8X^._.^.H.4XY.! =._.{._.G.K.{ m 7 5 9 , b 9 w U.#XU.I.1X%X9XU.h.Y.k.=X .v U B U &.-./.S.^.l.O.] | ~ ",
"~.Z.).8X,X3X8XyX& T Y.l./.H.{.[.].<X[.K.p.%.F._.{._.<X_.[.j.^ [ } S I Q x y.r.L.I.L.k.`.$Xg.`.U.W.l.1 r v.+.y.C.K.S.H.p.o.{ +. .",
"^.,XtX3X<X>X^.T.r D.%XK.A.*.7X`.].<X(.^.F._ =Xp.D._._.^.J.Y.k.f B u.y.v.D / >.7.L.k.z.+.=X@XL.U.#Xl.2 m oXn.k.=.*.S.C.D.g.9.o.+.",
",X>X,X3XQ.j.{ $.m _.2X+.*.C.].%XyX5X^.<X] 6 %Xu.$.s.Y.`.j.v.`.f 1 o.W.K U g 4.-.L.i.n.u.W.6XY.F.XXF.r 8.k.h.u.] #.O.S.~.Y.F.&.g.",
">X>X~.H.H.F.&.o.r K.G.u.F.D.-.L.{.K.Y.D.# e %XK.-.g.j.j.+.K n.T   & k.N.) & l.v.8...U.T.&X6XW.u.+.Y.^ p.I.I.j.#.*.Z.S.Z.-.&.p.@.",
",X).).C.=.J.I.Q * _.5XW.'.H.Y.B T [ T.Z ; , m G.+.y.J +.n.W K c } ! N  .w   J.5X0.G I.#X$X!.l.&.u.X.r z.Y.W.G.D.C.H.H.O.$.D.u.@.",
">X>X~.^.F.~ w > 1 C { G.-.j.G. .P n 1 e { O.S O.p.l.J f ( w * ..aXgXpX8.2   N =Xk.o.d.F G 8.+. .k.Y > m.l.%XU.&.&.=.Z.D T -.@.[ ",
"S.H.H.%.v & @.L. .q @ B { H n f q * & 7 ^ L.aXm O e B & o O @  .wXqX&XaXyX`.n K &.9.1.1.W 9._ i.I.* ; 6.Q.Q.h._ Q =.*.| *.C.k.+.",
"D { j.f . y.7X7XwXh.H 5 ; - 4 @ @ m r n U U.P.#Xp , % * 2 q p 5.XXN.a.rXgX6X#XQ G.m.f.z.i q A g a * @ 9 b K J ( J $.] X.^.H.Y.u.",
"+ & O @ O.9X{.=X5X!.oX!.I q T m H c B &X$Xr..Xv.XXv d a 2 a a P.w.7.|.P.&X8X2Xw ~ ..s 9 O . o @ , m @ @ ; ; 8 M Q u.! *.-.j.G.g.",
"4 ; 2 m [.^._.<X;XOXm.;X:Xz.B p r r j.wX.Xr.x.3.b.`.v d c F.!.W w.x.a.t.6XuX6Xn 9 a n ^ T A ! F.F.H.[ z a ; ; p h s s %.F.9.`.8.",
"1 3 q {.%X*X{.2X<X%X{.{.*X{.{.{.*X{.*X<X{.<X*X{.{.=X{.*X{.2X<X*X{.=X*X{.{.*X*X{.4X{.<X*X{.{.{.{.%X{.{.2X{.{.{.%X{.2X*X{.{._ R V ",
"- w [ 5X<X{.{.{.*X{.2X{.*X<X2X{.{.4X[.5X*X{.{.1X<X*X<X{.{.{.{.*X<X{.<X<X2X{.{.1X{.*X{.{.2X*X<X=X<X{.{.{.2X{.*X<X{.{.<X{.2Xo & u ",
"w B `.{.{.2X{.*X{.{.{.<X{.{.{.{.*X*X<X{.}.4X*X{.<X{.<X=X{.%X{.{.{.*X{.*X{.{.*X{.*X<X*X{.{.{.{.<X<X*X{.=X{.*X{.<X*X*X{.{.{.$ 1 u ",
"d [ 0X%X{.{.%X<X2X{.*X{.<X=X<X*X{.{.{.*X}.{.*X{.*X{.{.[.*X<X2X{.2X{.{.<X=X{.<X{.*X{.{.1X{.*X*X<X{.{.{.<X<X{.=X*X{.<X<X=X{.5X[ l ",
"t c 5X{.*X*X{.fXfXfXfXfXfXfXfXfXfXfXfXfXfXfXfXfXfXfXfXfXfXfXfXfXfXfXfXfXfXfXfXfXfXfXfXfXfXfXfXfXfXfXfXfXfXfXfXfXfX<X{.<X1XpX`.B ",
"9.c *.{.{.<X<XfXfXfXfXfXfXfXfXfXfXfXfXfXfXfXfXfXfXfXfXfXfXfXfXfXfXfXfXfXfXfXfXfXfXfXfXfXfXfXfXfXfXfXfXfXfXfXfXfXfX{.=X*X{.uX{./ ",
"U.O.C 2X*X<X=XfXfXfXfXfXfXfXfXfXfXfXfXfXfXfXfXfXfXfXfXfXfXfXfXfXfXfXfXfXfXfXfXfXfXfXfXfXfXfXfXfXfXfXfXfXfXfXfXfXfX{.{.{.{.aX=XD.",
"/.G.2 {.{.{.{.fXfXfXfXfXfXfXfXfXfXfXfXfXfXfXfXfXfXfXfXfXfXfXfXfXfXfXfXfXfXfXfXfXfXfXfXfXfXfXfXfXfXfXfXfXfXfXfXfXfX*X{.2X{.0.@.y.",
"W.z O {.*X<X{.fXfXfXfXfXfXfXfXfXfXfXfXfXfXfXfXfXfXfXfXfXfXfXfXfXfXfXfXfXfXfXfXfXfXfXfXfXfXfXfXfXfXfXfXfXfXfXfXfXfX{.{.{.*Xo.l.^ ",
"a * a {.{.<X=XfXfXfXfXfXfXfXfXfXfXfXfXfXfXfXfXfXfXfXfXfXfXfXfXfXfXfXfXfXfXfXfXfXfXfXfXfXfXfXfXfXfXfXfXfXfXfXfXfXfX2X2X{.{.K.0.^ ",
"5 i...4X{.*X{.fXfXfXfXfXfXfXfXfXfXfXfXfXfXfXfXfXfXfXfXfXfXfXfXfXfXfXfXfXfXfXfXfXfXfXfXfXfXfXfXfXfXfXfXfXfXfXfXfXfX{.{.%X{.b. .J ",
"D.<X].{.{.<X=XfXfXfXfXfXfXfXfXfXfXfXfXfXfXfXfXfXfXfXfXfXfXfXfXfXfXfXfXfXfXfXfXfXfXfXfXfXfXfXfXfXfXfXfXfXfXfXfXfXfX{.*X<X*Xk.{ ..",
">X~.~.{.{.{.{.fXfXfXfXfXfXfXfXfXfXfXfXfXfXfXfXfXfXfXfXfXfXfXfXfXfXfXfXfXfXfXfXfXfXfXfXfXfXfXfXfXfXfXfXfXfXfXfXfXfX{.=X{.{.i.@.8.",
"D.^.,X<X{.5X{.fXfXfXfXfXfXfXfXfXfXfXfXfXfXfXfXfXfXfXfXfXfXfXfXfXfXfXfXfXfXfXfXfXfXfXfXfXfXfXfXfXfXfXfXfXfXfXfXfXfX<X{.{.<Xb.b.c.",
">XA.,X{.{.*X{.fXfXfXfXfXfXfXfXfXfXfXfXfXfXfXfXfXfXfXfXfXfXfXfXfXfXfXfXfXfXfXfXfXfXfXfXfXfXfXfXfXfXfXfXfXfXfXfXfXfX*X{.2X{.@Xx.f.",
"tX8X).{.<X{.2XfXfXfXfXfXfXfXfXfXfXfXfXfXfXfXfXfXfXfXfXfXfXfXfXfXfXfXfXfXfXfXfXfXfXfXfXfXfXfXfXfXfXfXfXfXfXfXfXfXfX{.{.*X<XE.r.d.",
"~.,X^.1X{.{.4XfXfXfXfXfXfXfXfXfXfXfXfXfXfXfXfXfXfXfXfXfXfXfXfXfXfXfXfXfXfXfXfXfXfXfXfXfXfXfXfXfXfXfXfXfXfXfXfXfXfX=X*X{.1Xm..XoX",
"C.H.%.{.*X*X<XfXfXfXfXfXfXfXfXfXfXfXfXfXfXfXfXfXfXfXfXfXfXfXfXfXfXfXfXfXfXfXfXfXfXfXfXfXfXfXfXfXfXfXfXfXfXfXfXfXfX{.{.{.{.I.E.f.",
"H._.W.{.{.2X{.fXfXfXfXfXfXfXfXfXfXfXfXfXfXfXfXfXfXfXfXfXfXfXfXfXfXfXfXfXfXfXfXfXfXfXfXfXfXfXfXfXfXfXfXfXfXfXfXfXfX<X*X2X{.@Xz.0.",
"].].J.{.{.{.*XfXfXfXfXfXfXfXfXfXfXfXfXfXfXfXfXfXfXfXfXfXfXfXfXfXfXfXfXfXfXfXfXfXfXfXfXfXfXfXfXfXfXfXfXfXfXfXfXfXfX{.{.{.{.XXa.r.",
",XK.H.{.{.*X{.fXfXfXfXfXfXfXfXfXfXfXfXfXfXfXfXfXfXfXfXfXfXfXfXfXfXfXfXfXfXfXfXfXfXfXfXfXfXfXfXfXfXfXfXfXfXfXfXfXfX{.%X{.*Xi.5.0.",
"/.$.D {.<X{.<XfXfXfXfXfXfXfXfXfXfXfXfXfXfXfXfXfXfXfXfXfXfXfXfXfXfXfXfXfXfXfXfXfXfXfXfXfXfXfXfXfXfXfXfXfXfXfXfXfXfX*X<X{.{.P.P.x.",
"T  .N 2X5X{.<XfXfXfXfXfXfXfXfXfXfXfXfXfXfXfXfXfXfXfXfXfXfXfXfXfXfXfXfXfXfXfXfXfXfXfXfXfXfXfXfXfXfXfXfXfXfXfXfXfXfX{.{.2X%X%X#X0.",
"5 2 - {.{.*X{.fXfXfXfXfXfXfXfXfXfXfXfXfXfXfXfXfXfXfXfXfXfXfXfXfXfXfXfXfXfXfXfXfXfXfXfXfXfXfXfXfXfXfXfXfXfXfXfXfXfX2X*X{.<X7 U ..",
"v v q <X=X<X*XfXfXfXfXfXfXfXfXfXfXfXfXfXfXfXfXfXfXfXfXfXfXfXfXfXfXfXfXfXfXfXfXfXfXfXfXfXfXfXfXfXfXfXfXfXfXfXfXfXfX{.{.<X*X+ = = ",
"d J q {.{.{.{.fXfXfXfXfXfXfXfXfXfXfXfXfXfXfXfXfXfXfXfXfXfXfXfXfXfXfXfXfXfXfXfXfXfXfXfXfXfXfXfXfXfXfXfXfXfXfXfXfXfX{.*X<X{.r X.D.",
"w w X.*X4X{.<XfXfXfXfXfXfXfXfXfXfXfXfXfXfXfXfXfXfXfXfXfXfXfXfXfXfXfXfXfXfXfXfXfXfXfXfXfXfXfXfXfXfXfXfXfXfXfXfXfXfX{.<X{.{.r = S ",
"4 T uX{.{.{.*XfXfXfXfXfXfXfXfXfXfXfXfXfXfXfXfXfXfXfXfXfXfXfXfXfXfXfXfXfXfXfXfXfXfXfXfXfXfXfXfXfXfXfXfXfXfXfXfXfXfX*X=X{.<X| ] S ",
"A %.`.*X*X*X{.fXfXfXfXfXfXfXfXfXfXfXfXfXfXfXfXfXfXfXfXfXfXfXfXfXfXfXfXfXfXfXfXfXfXfXfXfXfXfXfXfXfXfXfXfXfXfXfXfXfX{.{.%X%X! -.F.",
"A %.I.{.<X{.5XfXfXfXfXfXfXfXfXfXfXfXfXfXfXfXfXfXfXfXfXfXfXfXfXfXfXfXfXfXfXfXfXfXfXfXfXfXfXfXfXfXfXfXfXfXfXfXfXfXfX{.2X{.{., . v ",
"p.k.#X<X{.<X[.fXfXfXfXfXfXfXfXfXfXfXfXfXfXfXfXfXfXfXfXfXfXfXfXfXfXfXfXfXfXfXfXfXfXfXfXfXfXfXfXfXfXfXfXfXfXfXfXfXfX*X2X{.{.1 * & ",
"[.{.{.*X{.=X{.{.*X{.{.*X{.1X{.*X{.{.2X{.{.*X<X{.{.=X<X{.*X<X{.*X{.{.{.*X<X%X{.2X{.{.*X{.<X*X{.<X*X<X{.{.=X<X{.*X<X{.{.{.<Xr z 6 ",
"p.F._.{.5X{.*X{.{.{.{.<X{.{.*X{.*X<X{.<X{.*X{.2X{.{.{.<X<X%X{.{.*X<X{.<X{.{.{.{.*X{.{.<X%X<X<X[.{.{.{.*X{.*X<X2X{.{.{.1X{.#.A.%.",
"H p.{.%X{.{.{.2X<X*X=X{.*X<X{.2X{.{.=X{.<X{.{.{.{.=X{.*X*X{.2X{.{.{.*X{.=X2X{.{.{.<X*X{.{.*X{.}.{.2X1X{.{.<X%X{.{.*X*X{.*X-.p.u.",
"X.s.W.U.h.I.oX#X-X-XoXaXP q @.D._.^.l.i.&.`.sX7XaXU./ K Q '.{.P.!..X!.U.oXn.{.5X+.9.,.;.3.*X%XsXI.#X`.m T ].l.l S C D.-.].H.*.u.",
"} [.G.=XW.`.=XpX:X;X-X#Xw s [ $.=.<X!.[.D.W.1X%XrXY Y.z._ W.1.0.#XoX.Xr.qX%XK.Y.! / w.x.'.m.E..Xm.Y.`._ 1 C p N ` N A 9.`.8XG.+.",
"1 } *.Y.`.5XpX:XeXwXdXXXH y.=XW. .o./ Y.<XK.{.qX9.= {.!.G G <.$X@XU.b.b.L.-XQ.K.q _ ;X0X7XwXaXB. X'.XX/ n C x T V f ..@.D.0XJ.l.",
"I N c N h. .%...) ~ %.B U O.tX'.i.i.E.W.<X{.u.k.& c K.k._ >.T.=XwXXXU.b.R 5.D.F.X s ( =X7XOXM.OXV.XXeX .m A D $.C ^ Q.Q.W.2X(.G.",
"W.z.5.5 q 9 1 m  .0.8.R X.] ,X=X`.{.W.'.{.2XT.n o r O.p.v.f.@XW.n.%XG.y.>. .{ C $ x W >.E.f.4.I.v./ 8.T 5._ ] X.o.U.b.I.p.[.R.s.",
"8.7.y.V D { F.Q.i.<.3.b.K.{ (.9X0X7X$X7X<XtX`.a &.X.m F.-.8.n.k.X.S G _ W ~ +.N #.D.4 s R B.'.).G.0.6.B z.5.` | 9.9.l.G.K.H.J.H.",
"1.L U N ! y.&Xp.R h q.q.i.X.X.A.X.N v G.rXpXO.n _.6XT j.I.u.{ F.+.N x 4 p T  .l -.-.A 9 : .._.5XD.=.r +.N.K I , A ..+.g.D.] Q A ",
"1 : @.8.9.L.'.J.j.O.Y.r.F.l.Q z ; O : a l D Z m Z W.T | &.! X.N * r 7 * B ] ] T ! @.u.*.r w F._.O.* . i.2.2.F . * I R [ S._ Q 2 ",
"  l &XA.g.y.5.`.I...F h g.o.@.F.w a p.&.{ N f I ! w ] ! z 7 C a z D %.] ] D.| #.C  .j.*.C > 4 C V V 7 8.<.7.H l | Z H 1 r > 4 1 ",
"1 N L./  .R R i.h y y j v.0.n.v.Y z $.-._.Y.U.L.h.H N X.| X.| | | ' *.] D =.| O.[ } $.o... .l 1 D ] 2 n G U { { D.j.7X@.a 6 6 r ",
"c | i.:.s h F L h >.;.2.T.@XXX0./ > u.[.#.{.tX3Xp.`.p.y.Z N { C D | | } C $.| -.[ *./.m.b.F.! z | o.m + w w [ -.J.'.`.I.T S S 7 ",
"d  .^ R 8 0 8 * t 8 8 / {.eX7XoXg.> E ,XC.~.>XS.G.].{.&.X.X.Z Z { -.-.D.T } $.J.%._.6X@XoXF.6 {  .A l   T $.` H.n.v.v.J.%.M r 2 ",
"d Y m R 8.:.0 8 8 8 y t Y.`._.7XY.> l ).H.^.,XJ.$.*.^.[.[.F.O.N m A O.#.z O.7X;Xn..X$X`._.%.q p.f.g , O $.+.Q s.d.e.z.[.p.+.j.` ",
"_ _ I t :.h 8 8 8 t R L Y.l.~.`.o.* 4 #.~.3X].H.| p.].tX2XK._.Q q 7 c 6 p '.'.L.E.b.!.Y.<X{ z D.7.J = < | +. .3.n.3.I._.F.X.j.u."
};
